<?xml version="1.0"?>
<svg xmlns="http://www.w3.org/2000/svg" height="512px" viewBox="-11 0 491 491.54667" width="512px" class=""><g><path d="m359.832031 195.121094-2.710937-2.710938c-14.035156-14.015625-32.683594-21.738281-52.5-21.738281h-18.070313c1.152344-7.1875 1.75-14.316406 1.75-21.332031 0-76.460938-62.207031-138.667969-138.667969-138.667969-11.457031 0-22.867187 1.429687-34.003906 4.246094l-11.796875-11.796875c-4.160156-4.160156-10.925781-4.160156-15.085937 0l-85.332032 85.332031c-4.160156 4.160156-4.160156 10.921875 0 15.082031l11.796876 11.796875c-2.835938 11.136719-4.265626 22.53125-4.265626 33.984375 0 83.605469 74.835938 150.957032 160.449219 136.855469l.46875 20.777344c.449219 20.011719 9.152344 39.273437 23.851563 52.886719 2.046875 1.898437 4.648437 2.835937 7.230468 2.835937 2.730469 0 5.460938-1.046875 7.550782-3.113281l149.335937-149.335938c4.136719-4.179687 4.160157-10.921875 0-15.101562zm0 0" fill="#2196f3" data-original="#2196F3" class="active-path" data-old_color="#2196f3" style="fill:#CFD8DC"/><path d="m202.945312 362.652344c-2.601562 0-5.183593-.941406-7.230468-2.839844-14.699219-13.609375-23.402344-32.875-23.851563-52.882812l-.46875-20.78125c-85.613281 14.144531-160.449219-53.226563-160.449219-136.832032 0-11.453125 1.429688-22.867187 4.246094-34.003906l-11.796875-11.777344c-4.160156-4.160156-4.160156-10.921875 0-15.082031l85.332031-85.332031c4.160157-4.160156 10.921876-4.160156 15.082032 0l11.796875 11.796875c11.136719-2.839844 22.550781-4.265625 34.007812-4.265625 76.457031 0 138.664063 62.207031 138.664063 138.664062 0 7.019532-.574219 14.144532-1.746094 21.335938h18.066406c19.820313 0 38.464844 7.722656 52.503906 21.738281l2.707032 2.707031c4.160156 4.160156 4.140625 10.921875 0 15.082032l-149.332032 149.335937c-2.070312 2.109375-4.800781 3.136719-7.53125 3.136719zm-21.183593-100.226563c2.304687 0 4.566406.746094 6.441406 2.15625 2.605469 1.960938 4.160156 5.011719 4.226563 8.253907l.765624 33.621093c.234376 10.839844 3.863282 21.335938 10.175782 30.019531l133.527344-133.527343c-9.21875-7.105469-20.460938-10.964844-32.277344-10.964844h-31.191406c-3.304688 0-6.421876-1.535156-8.445313-4.140625-2.007813-2.601562-2.710937-5.992188-1.898437-9.191406 2.558593-9.898438 3.859374-19.777344 3.859374-29.335938 0-64.703125-52.628906-117.332031-117.332031-117.332031-11.519531 0-22.976562 1.707031-34.050781 5.054687-3.796875 1.175782-7.847656.148438-10.644531-2.644531l-8.640625-8.640625-70.25 70.230469 8.640625 8.640625c2.773437 2.773438 3.820312 6.867188 2.667969 10.644531-3.351563 11.09375-5.058594 22.550781-5.058594 34.046875 0 74.285156 69.675781 133.292969 146.796875 113.453125.894531-.214843 1.792969-.34375 2.6875-.34375zm0 0" data-original="#000000" class="" data-old_color="#000000" style="fill:#4A5568"/><path d="m202.410156 107.183594c-2.730468 0-5.460937-1.046875-7.550781-3.113282-12.074219-12.074218-28.160156-18.753906-45.246094-18.753906-5.890625 0-10.667969-4.777344-10.667969-10.664062 0-5.890625 4.777344-10.667969 10.667969-10.667969 22.78125 0 44.203125 8.875 60.328125 24.980469 4.160156 4.160156 4.160156 10.921875 0 15.082031-2.066406 2.113281-4.796875 3.136719-7.53125 3.136719zm0 0" data-original="#000000" class="" data-old_color="#000000" style="fill:#4A5568"/><path d="m458.945312 490.652344c-5.886718 0-10.667968-4.78125-10.667968-10.667969 0-81.855469-38.824219-155.242187-101.351563-191.507813-5.101562-2.96875-6.828125-9.472656-3.882812-14.59375 2.941406-5.097656 9.46875-6.871093 14.589843-3.882812 69.078126 40.105469 111.980469 120.554688 111.980469 209.984375 0 5.910156-4.78125 10.667969-10.667969 10.667969zm0 0" data-original="#000000" class="" data-old_color="#000000" style="fill:#4A5568"/><path d="m418.945312 490.652344c-5.226562 0-9.769531-3.839844-10.558593-9.152344-9.664063-67.203125-46.59375-125.421875-98.796875-155.691406-5.097656-2.964844-6.824219-9.472656-3.882813-14.59375 2.945313-5.097656 9.453125-6.867188 14.59375-3.882813 57.792969 33.515625 98.644531 97.472657 109.226563 171.117188.832031 5.824219-3.222656 11.242187-9.046875 12.074219-.53125.105468-1.042969.128906-1.535157.128906zm0 0" data-original="#000000" class="" data-old_color="#000000" style="fill:#4A5568"/><path d="m373.613281 491.546875c-4.589843 0-8.832031-2.988281-10.21875-7.59375-15.597656-52.203125-48.832031-96.234375-91.136719-120.769531-5.097656-2.964844-6.828124-9.472656-3.882812-14.589844 2.945312-5.101562 9.449219-6.851562 14.589844-3.882812 46.957031 27.242187 83.734375 75.773437 100.886718 133.097656 1.6875 5.652344-1.515624 11.605468-7.167968 13.289062-1.023438.300782-2.046875.449219-3.070313.449219zm0 0" data-original="#000000" class="" data-old_color="#000000" style="fill:#4A5568"/></g> </svg>
