<?xml version="1.0"?>
<svg xmlns="http://www.w3.org/2000/svg" height="512px" viewBox="0 -22 512.19025 512" width="512px" class=""><g><path d="m362.035156 176.28125c-.789062-2.132812-2.21875-3.96875-4.09375-5.226562l-95.9375-64c-3.582031-2.390626-8.253906-2.390626-11.839844 0l-96.0625 64c-1.898437 1.277343-3.328124 3.09375-4.117187 5.226562-14.230469 38.996094-22.125 93.269531 2.472656 117.867188 11.882813 11.882812 21.058594 41.34375 29.933594 69.84375 15.914063 51.09375 32.359375 103.9375 73.621094 103.9375 41.257812 0 57.703125-52.84375 73.621093-103.9375 8.875-28.5 18.046876-57.960938 29.929688-69.84375 24.597656-24.597657 16.703125-78.871094 2.472656-117.867188zm0 0" fill="#ffc107" data-original="#FFC107" class="" data-old_color="#ffc107" style="fill:#CBD5E0"/><path d="m441.011719 10.03125c-71.101563-25.601562-104.46875 3.882812-133.929688 29.863281l-4.671875 4.097657c-17.621094 15.296874-29.484375 33.601562-38.164062 46.976562-3.628906 5.589844-8.085938 12.457031-10.390625 14.632812-4.820313 1.027344-8.449219 5.3125-8.449219 10.453126 0 5.890624 4.78125 10.667968 10.667969 10.667968h.703125c4.246094 21.996094 23.957031 42.175782 30.722656 48.554688 7.378906 6.953125 33.234375 29.417968 55.507812 25.984375 4.671876-.703125 8.320313-4.394531 8.960938-9.066407 4.480469-32.171874 30.953125-78.25 55.421875-86.207031 8.191406-2.667969 15.316406-.511719 22.335937 6.78125 15.105469 15.679688 22.144532 40.171875 18.796876 65.539063-2.519532 18.984375-10.15625 31.378906-16.511719 35.199218-1.941407 1.128907-3.117188 1.34375-2.882813 1.535157-3.667968-2.964844-5.929687-27.113281 7.019532-51.304688 2.132812-3.96875 1.515624-8.832031-1.492188-12.183593-3.007812-3.328126-7.789062-4.4375-11.949219-2.730469-36.4375 14.890625-56 44.4375-53.714843 81.109375 2.003906 31.980468 21.054687 60.820312 44.328124 67.09375 4.097657 1.085937 8.363282 1.621094 12.671876 1.621094 13.101562 0 26.902343-4.886719 39.382812-14.164063 27.863281-20.757813 45.3125-59.648437 46.679688-104.085937v-.042969c2.066406-71.402344-19.117188-151.765625-71.042969-170.324219zm0 0" fill="#607d8b" data-original="#607D8B" class="" data-old_color="#607d8b" style="fill:#607D8B"/><path d="m258.804688 106.050781c-2.132813-1.449219-7.125-9.152343-11.136719-15.316406-8.660157-13.292969-20.5-31.511719-37.929688-46.742187l-5.054687-4.414063c-29.421875-25.816406-62.808594-55.085937-133.546875-29.570313-51.308594 18.367188-70.359375 103.019532-71.0625002 169.921876-.4921878 43.453124 15.3164062 80.894531 43.3476562 102.761718 13.421875 10.453125 28.3125 16 42.433594 16 4.4375 0 8.8125-.554687 13.011719-1.664062 23.234374-6.273438 42.242187-35.15625 44.226562-67.199219 2.261719-36.609375-17.300781-66.113281-53.652344-80.960937-4.140625-1.683594-8.917968-.597657-11.949218 2.710937-3.007813 3.304687-3.625 8.148437-1.515626 12.117187 12.652344 23.976563 10.96875 48.0625 7.488282 51.175782-.085938.257812-1.363282-.191406-3.261719-1.320313-6.507813-3.882812-14.210937-16.277343-16.726563-35.242187-3.371093-25.34375 3.710938-49.816406 18.945313-65.539063 6.996094-7.273437 14.058594-9.46875 22.226563-6.804687 24.34375 7.851562 50.882812 53.996094 55.53125 86.25.683593 4.652344 4.308593 8.320312 8.941406 9.027344 22.058594 3.433593 47.613281-18.734376 54.933594-25.601563 6.929687-6.464844 27.199218-27.050781 31.359374-49.429687 4.628907-.535157 8.574219-3.945313 9.429688-8.554688.894531-4.863281-1.472656-9.621094-6.039062-11.605469zm0 0" fill="#607d8b" data-original="#607D8B" class="" data-old_color="#607d8b" style="fill:#607D8B"/><path d="m340.171875 228.417969c-1.816406-3.5625-5.484375-5.800781-9.496094-5.800781h-21.332031c-11.753906 0-21.332031 9.578124-21.332031 21.332031 0 11.753906 9.578125 21.332031 21.332031 21.332031 3.390625 0 11.328125 0 29.972656-25.746094 2.347656-3.246094 2.6875-7.53125.855469-11.117187zm0 0" fill="#455a64" data-original="#455A64" class="active-path" data-old_color="#455a64" style="fill:#455A64"/><path d="m202.675781 222.617188h-21.332031c-4.011719 0-7.679688 2.238281-9.492188 5.800781-1.816406 3.5625-1.496093 7.871093.851563 11.117187 18.644531 25.746094 26.582031 25.746094 29.972656 25.746094 11.753907 0 21.335938-9.578125 21.335938-21.332031 0-11.753907-9.582031-21.332031-21.335938-21.332031zm10.667969 21.332031" fill="#455a64" data-original="#455A64" class="active-path" data-old_color="#455a64" style="fill:#455A64"/><path d="m85.664062 298.605469c-13.972656 0-28.757812-5.460938-42.089843-15.808594-28.160157-21.824219-44.035157-59.371094-43.5625002-102.976563.7460932-66.878906 19.7968752-151.507812 71.0585932-169.917968 70.914063-25.453125 104.277344 3.839844 133.71875 29.714844l4.886719 4.269531c17.578125 15.273437 29.4375 33.578125 38.121094 46.933593 2.6875 4.136719 5.824219 8.980469 8.214844 12.09375 2.386719-3.113281 5.523437-7.957031 8.210937-12.09375 8.664063-13.355468 20.542969-31.660156 38.125-46.933593l4.882813-4.269531c29.441406-25.875 62.828125-55.207032 133.71875-29.714844 52.054687 18.6875 73.195312 99.050781 71.0625 170.367187-1.34375 44.542969-18.796875 83.519531-46.679688 104.234375-16.597656 12.332032-35.582031 16.855469-52.09375 12.417969-23.210937-6.253906-42.242187-35.050781-44.289062-66.96875-2.324219-36.648437 17.238281-66.238281 53.675781-81.214844 4.136719-1.707031 8.9375-.640625 11.945312 2.6875 3.027344 3.328125 3.625 8.191407 1.535157 12.160157-12.671875 23.9375-11.070313 48-7.019531 51.414062-.191407-.214844.941406-.449219 2.796874-1.558594 6.464844-3.839844 14.101563-16.148437 16.640626-35.007812 3.410156-25.363282-3.628907-49.960938-18.859376-65.769532-7.019531-7.296874-14.101562-9.40625-22.292968-6.761718-24.449219 7.933594-50.921875 54.015625-55.46875 86.1875-.660156 4.648437-4.265625 8.320312-8.894532 9.042968-22.058593 3.585938-47.660156-18.539062-54.976562-25.34375-6.910156-6.441406-27.027344-26.835937-31.316406-49.195312-.46875.023438-.9375.023438-1.410156 0-4.285157 22.359375-24.402344 42.753906-31.316407 49.195312-7.316406 6.828126-32.789062 28.949219-54.976562 25.34375-4.628907-.722656-8.234375-4.394531-8.894531-9.042968-4.523438-32.171875-31.019532-78.273438-55.46875-86.1875-8.210938-2.667969-15.273438-.492188-22.292969 6.785156-15.230469 15.804688-22.292969 40.382812-18.855469 65.769531 2.535156 18.835938 10.175781 31.144531 16.636719 35.007813 1.898437 1.128906 3.050781 1.363281 3.351562 1.363281 3.496094-3.113281 5.121094-27.21875-7.574219-51.199219-2.113281-3.96875-1.492187-8.832031 1.535157-12.160156 3.03125-3.328125 7.808593-4.414062 11.949219-2.6875 36.4375 14.957031 56 44.566406 53.671874 81.214844-2.027343 31.917968-21.054687 60.714844-44.285156 66.96875-4.246094 1.085937-8.640625 1.640625-13.121094 1.640625zm321.066407-114.859375c-15.359375 15.082031-17.214844 33.386718-16.492188 44.863281 1.539063 24.363281 16 44.332031 28.523438 47.703125 10.199219 2.710938 22.507812-.511719 33.835937-8.917969 22.699219-16.851562 36.925782-49.664062 38.058594-87.765625 1.898438-63.507812-17.046875-135.296875-56.941406-149.632812-59.027344-21.226563-83.796875.535156-112.425782 25.664062l-4.96875 4.351563c-15.316406 13.3125-25.792968 29.464843-34.21875 42.457031-2.089843 3.199219-4.011718 6.164062-5.847656 8.851562.832032 1.683594 1.21875 3.585938 1.027344 5.589844-.941406 10.921875 9.214844 28.332032 25.277344 43.304688 11.328125 10.582031 22.359375 16.898437 30.082031 19.117187 8.296875-35.160156 35.328125-83.050781 68.117187-93.675781 11.242188-3.648438 28.074219-4.523438 44.246094 12.246094 19.710938 20.457031 28.925782 51.648437 24.660156 83.414062-3.15625 23.488282-13.207031 42.367188-26.878906 50.496094-15.019531 8.914062-24.875 2.066406-28.394531-1.324219-9.6875-9.238281-11.308594-27.839843-7.660156-46.742187zm-285.527344-162.347656c-12.117187 0-26.132813 2.5625-42.921875 8.597656-38.144531 13.699218-56.253906 87.382812-56.9375 150.058594-.40625 36.355468 12.800781 68.460937 35.285156 85.890624 12.117188 9.386719 25.792969 13.289063 36.609375 10.34375 12.519531-3.367187 26.984375-23.335937 28.519531-47.699218.726563-11.476563-1.128906-29.78125-16.488281-44.863282 3.667969 18.902344 2.027344 37.503907-7.660156 46.71875-3.539063 3.371094-13.355469 10.242188-28.394531 1.324219-13.675782-8.128906-23.722656-27.007812-26.878906-50.496093-4.289063-31.765626 4.925781-62.957032 24.660156-83.414063 16.148437-16.726563 32.980468-15.894531 44.226562-12.246094 32.808594 10.644531 59.839844 58.519531 68.136719 93.675781 7.722656-2.21875 18.730469-8.535156 30.082031-19.117187 16.0625-14.972656 26.214844-32.402344 25.277344-43.304687-.171875-2.003907.214844-3.902344 1.023438-5.589844-1.855469-2.667969-3.773438-5.632813-5.84375-8.851563-8.425782-12.972656-18.902344-29.144531-34.21875-42.453125l-4.972657-4.332031c-20.476562-18.003906-38.996093-34.242187-69.503906-34.242187zm0 0" data-original="#000000" class="" data-old_color="#000000" style="fill:#2D3748"/><path d="m256.011719 467.949219c-41.261719 0-57.707031-52.84375-73.621094-103.9375-8.875-28.5-18.050781-57.960938-29.933594-69.84375-24.597656-24.617188-16.703125-78.890625-2.472656-117.886719 2.027344-5.546875 8.128906-8.363281 13.671875-6.359375 5.546875 2.027344 8.40625 8.152344 6.378906 13.675781-15.167968 41.578125-16.210937 81.726563-2.472656 95.464844 15.59375 15.597656 25.128906 46.210938 35.222656 78.59375 12.96875 41.683594 27.6875 88.9375 53.246094 88.9375s40.257812-47.253906 53.25-88.9375c10.089844-32.40625 19.605469-62.996094 35.21875-78.59375 13.738281-13.738281 12.695312-53.886719-2.472656-95.464844-2.027344-5.523437.832031-11.648437 6.355468-13.675781 5.546876-1.984375 11.648438.832031 13.675782 6.359375 14.230468 38.996094 22.121094 93.269531-2.476563 117.867188-11.882812 11.882812-21.054687 41.34375-29.929687 69.84375-15.9375 51.113281-32.382813 103.957031-73.640625 103.957031zm0 0" data-original="#000000" class="" data-old_color="#000000" style="fill:#2D3748"/><path d="m245.34375 403.949219c0 5.890625-4.777344 10.667969-10.667969 10.667969s-10.664062-4.777344-10.664062-10.667969 4.773437-10.667969 10.664062-10.667969 10.667969 4.777344 10.667969 10.667969zm0 0" data-original="#000000" class="" data-old_color="#000000" style="fill:#2D3748"/><path d="m288.011719 403.949219c0 5.890625-4.777344 10.667969-10.667969 10.667969s-10.667969-4.777344-10.667969-10.667969 4.777344-10.667969 10.667969-10.667969 10.667969 4.777344 10.667969 10.667969zm0 0" data-original="#000000" class="" data-old_color="#000000" style="fill:#2D3748"/><path d="m309.34375 265.28125c-11.753906 0-21.332031-9.578125-21.332031-21.332031 0-11.753907 9.578125-21.332031 21.332031-21.332031h21.332031c4.011719 0 7.679688 2.238281 9.496094 5.800781 1.8125 3.5625 1.492187 7.871093-.875 11.117187-18.625 25.746094-26.5625 25.746094-29.953125 25.746094zm0 0" data-original="#000000" class="" data-old_color="#000000" style="fill:#2D3748"/><path d="m202.675781 265.28125c-3.390625 0-11.347656 0-29.972656-25.746094-2.347656-3.246094-2.667969-7.53125-.851563-11.117187 1.8125-3.5625 5.480469-5.800781 9.492188-5.800781h21.332031c11.753907 0 21.335938 9.578124 21.335938 21.332031 0 11.753906-9.582031 21.332031-21.335938 21.332031zm1.984375-21.332031h8.683594zm0 0" data-original="#000000" class="" data-old_color="#000000" style="fill:#2D3748"/></g> </svg>
