<?xml version="1.0"?>
<svg xmlns="http://www.w3.org/2000/svg" height="512px" viewBox="-20 0 512 512" width="512px" class=""><g><g fill="#f44336"><path d="m356.496094 294.101562-31.828125-27.988281c4.949219-5.65625 7.851562-12.992187 7.851562-20.78125 0-17.640625-14.359375-32-32-32-9.34375 0-17.792969 4.054688-23.617187 10.753907l-33.386719-29.375c-4.011719-3.542969-10.070313-3.542969-14.078125 0l-33.34375 29.332031c-5.824219-6.675781-14.253906-10.710938-23.574219-10.710938-17.644531 0-32 14.359375-32 32 0 7.746094 2.878907 15.0625 7.808594 20.714844l-31.851563 28.011719c-10.902343 9.34375-17.449218 22.398437-18.476562 36.714844-1.023438 14.316406 3.605469 28.117187 12.949219 38.785156l117.398437 138.601562c2.027344 2.390625 4.992188 3.777344 8.128906 3.777344 3.136719 0 6.121094-1.367188 8.128907-3.777344l117.289062-138.476562c9.429688-10.792969 14.082031-24.59375 13.054688-38.910156-1.042969-14.292969-7.59375-27.308594-18.453125-36.671876zm0 0" data-original="#000000" class="active-path" data-old_color="#000000" fill="#455A64"/><path d="m165.542969 51.585938c-5.460938-1.496094-11.070313 1.449218-12.90625 6.761718-.425781 1.214844-1.707031 4.90625-8.492188 7.65625-9.597656 3.90625-23.039062 3.351563-31.570312 2.007813 6.226562-8.832031 20.328125-25.429688 44.863281-49.773438 3.070312-3.050781 3.988281-7.636719 2.34375-11.625-1.664062-4.011719-5.546875-6.613281-9.875-6.613281-60.117188 0-104.621094 17.941406-125.292969 50.496094-11.304687 17.835937-20.414062 48.40625.449219 92.714844 1.089844 2.304687 2.964844 4.160156 5.292969 5.203124 17.578125 7.832032 34.109375 11.757813 49.449219 11.757813 13.246093 0 25.601562-2.925781 36.992187-8.769531 27.667969-14.164063 47.679687-45.203125 56.363281-87.402344 1.128906-5.484375-2.199218-10.921875-7.617187-12.414062zm0 0" data-original="#000000" class="active-path" data-old_color="#000000" fill="#455A64"/><path d="m448.421875 50.496094c-20.671875-32.554688-65.171875-50.496094-125.289063-50.496094-4.332031 0-8.214843 2.601562-9.855468 6.613281-1.644532 3.988281-.726563 8.574219 2.34375 11.625 24.515625 24.34375 38.613281 40.941407 44.867187 49.773438-8.535156 1.34375-21.953125 1.898437-31.574219-2.007813-6.785156-2.75-8.0625-6.441406-8.492187-7.65625-1.855469-5.3125-7.488281-8.214844-12.90625-6.761718-5.4375 1.492187-8.765625 6.929687-7.636719 12.414062 8.683594 42.175781 28.695313 73.214844 56.363282 87.402344 11.414062 5.84375 23.765624 8.769531 36.992187 8.769531 15.339844 0 31.871094-3.925781 49.449219-11.777344 2.324218-1.046875 4.203125-2.878906 5.292968-5.207031 20.863282-44.285156 11.753907-74.855469.445313-92.691406zm0 0" data-original="#000000" class="active-path" data-old_color="#000000" fill="#455A64"/></g><path d="m108.519531 330.667969c-2.902343 0-5.78125-1.175781-7.894531-3.5l-86.804688-95.488281c-14.847656-16.339844-18.070312-40.511719-8.019531-60.160157l16.980469-33.171875c-17.984375-41.75-9.132812-70.742187 1.769531-87.914062 20.671875-32.511719 65.152344-50.433594 125.269531-50.433594 4.308594 0 8.191407 2.601562 9.835938 6.59375 1.664062 3.988281.746094 8.554688-2.304688 11.625-24.425781 24.425781-38.507812 41.003906-44.800781 49.835938 8.535157 1.34375 21.886719 1.898437 31.53125-2.007813 6.761719-2.75 8.019531-6.441406 8.449219-7.636719 1.8125-5.3125 7.421875-8.363281 12.882812-6.824218 5.417969 1.46875 8.769532 6.910156 7.660157 12.414062-8.554688 42.132812-28.5 73.171875-56.171875 87.402344-22.3125 11.457031-48.277344 11.710937-77.269532.832031l-14.824218 29.011719c-6.039063 11.800781-4.097656 26.285156 4.796875 36.097656l86.808593 95.507812c3.964844 4.355469 3.625 11.117188-.726562 15.0625-2.027344 1.835938-4.609375 2.753907-7.167969 2.753907zm-65.898437-200.191407c25.085937 10.429688 46.742187 11.089844 64.511718 1.9375 15.125-7.761718 27.734376-23.207031 36.371094-43.945312-.9375.214844-1.898437.40625-2.878906.597656-15.144531 2.773438-42.902344 1.171875-50.21875-7.59375-4.992188-5.996094-10.625-12.714844 32.769531-58.730468-38.484375 4.265624-67.179687 18.003906-80.597656 39.125-11.605469 18.261718-11.5625 41.917968.042969 68.609374zm0 0" data-original="#000000" class="active-path" data-old_color="#000000" fill="#455A64"/><path d="m172.519531 384c-3.390625 0-6.71875-1.601562-8.789062-4.609375l-16.277344-23.59375c-10.519531-12.308594-9.089844-32.339844 3.816406-43.777344l24.960938-21.4375c4.480469-3.839843 11.199219-3.351562 15.039062 1.128907 3.839844 4.480468 3.328125 11.199218-1.152343 15.042968l-24.832032 21.332032c-4.15625 3.710937-4.628906 10.367187-.914062 14.742187l16.914062 24.445313c3.351563 4.863281 2.136719 11.5-2.730468 14.828124-1.832032 1.300782-3.945313 1.898438-6.035157 1.898438zm0 0" data-original="#000000" class="active-path" data-old_color="#000000" fill="#455A64"/><path d="m236.519531 512h-.105469c-4.3125 0-8.214843-2.601562-9.859374-6.59375-1.664063-3.988281-.746094-8.574219 2.304687-11.625 2.113281-2.113281 5.058594-3.15625 8.042969-3.136719 3.007812.148438 5.824218 1.492188 7.746094 3.796875 2.644531 3.179688 3.242187 7.636719 1.492187 11.394532-1.75 3.753906-5.484375 6.164062-9.621094 6.164062zm0 0" data-original="#000000" class="active-path" data-old_color="#000000" fill="#455A64"/><path d="m236.433594 213.355469c-2.410156 0-4.820313-.8125-6.804688-2.453125-3.457031-2.882813-4.757812-7.636719-3.222656-11.863282 1.535156-4.222656 5.503906-7.039062 10.007812-7.039062h.105469c4.308594 0 8.210938 2.601562 9.855469 6.59375 1.664062 3.988281.746094 8.574219-2.304688 11.625-2.089843 2.070312-4.863281 3.136719-7.636718 3.136719zm0 0" data-original="#000000" class="active-path" data-old_color="#000000" fill="#455A64"/><path d="m236.476562 511.9375c-3.136718 0-6.121093-1.367188-8.128906-3.777344l-117.398437-138.601562c-9.34375-10.667969-13.972657-24.46875-12.949219-38.785156 1.027344-14.316407 7.574219-27.347657 18.476562-36.714844l31.851563-28.011719c-4.929687-5.652344-7.808594-12.96875-7.808594-20.714844 0-17.640625 14.355469-32 32-32 9.320313 0 17.75 4.035157 23.550781 10.710938l33.34375-29.332031c4.011719-3.542969 10.070313-3.542969 14.082032 0l33.386718 29.375c5.84375-6.699219 14.292969-10.753907 23.636719-10.753907 17.640625 0 32 14.359375 32 32 0 7.789063-2.902343 15.105469-7.851562 20.78125l31.828125 27.988281c10.859375 9.34375 17.410156 22.378907 18.433594 36.671876 1.023437 14.316406-3.605469 28.117187-13.054688 38.910156l-117.292969 138.476562c-2.003906 2.410156-4.96875 3.777344-8.105469 3.777344zm-63.957031-277.269531c-5.886719 0-10.667969 4.777343-10.667969 10.664062 0 4.4375 2.796876 8.300781 7.148438 9.855469 3.5625 1.28125 6.1875 4.332031 6.890625 8.042969.703125 3.714843-.597656 7.511719-3.4375 10.007812l-41.980469 36.925781c-6.636718 5.71875-10.582031 13.527344-11.179687 22.125-.621094 8.574219 2.175781 16.875 7.828125 23.359376l109.355468 129.128906 109.246094-129c5.78125-6.613282 8.554688-14.890625 7.9375-23.488282-.617187-8.597656-4.542968-16.425781-11.09375-22.015624-.019531-.042969-.0625-.066407-.085937-.109376l-41.960938-36.90625c-2.839843-2.496093-4.140625-6.3125-3.433593-10.027343.722656-3.710938 3.347656-6.78125 6.910156-8.042969 4.375-1.535156 7.191406-5.417969 7.191406-9.855469 0-5.886719-4.78125-10.664062-10.667969-10.664062-4.84375 0-8.960937 3.539062-10.027343 8.597656-.789063 3.710937-3.476563 6.71875-7.082032 7.933594-3.585937 1.214843-7.550781.40625-10.410156-2.109375l-36.546875-32.152344-36.433594 32.066406c-2.839843 2.472656-6.808593 3.285156-10.390625 2.132813-3.585937-1.195313-6.273437-4.183594-7.082031-7.894531-1.089844-5.054688-5.207031-8.574219-10.027344-8.574219zm0 0" data-original="#000000" class="active-path" data-old_color="#000000" fill="#455A64"/><path d="m23.1875 490.667969c-5.890625 0-10.667969-4.78125-10.667969-10.667969 0-40.960938 19.414063-68.585938 35.691407-84.566406 20.734374-20.328125 48.382812-33.023438 71.1875-32.765625 5.886718.125 10.582031 4.96875 10.453124 10.878906-.105468 5.867187-4.246093 10.070313-10.878906 10.453125-13.84375.339844-36.652344 7.851562-55.828125 26.667969-13.355469 13.097656-29.292969 35.796875-29.292969 69.332031 0 5.886719-4.777343 10.667969-10.664062 10.667969zm0 0" data-original="#000000" class="active-path" data-old_color="#000000" fill="#455A64"/><path d="m87.1875 512c-2.734375 0-5.464844-1.046875-7.554688-3.113281-28.265624-28.269531-27.09375-51.328125-21.140624-65.730469 13.929687-33.578125 64.980468-48.488281 82.027343-48.488281 5.886719 0 10.667969 4.777343 10.667969 10.664062 0 5.890625-4.78125 10.667969-10.667969 10.667969-14.164062 0-53.355469 13.71875-62.292969 35.308594-5.058593 12.179687.511719 26.472656 16.511719 42.472656 4.160157 4.160156 4.160157 10.921875 0 15.082031-2.089843 2.089844-4.820312 3.136719-7.550781 3.136719zm0 0" data-original="#000000" class="active-path" data-old_color="#000000" fill="#455A64"/><path d="m151.1875 512c-2.734375 0-5.464844-1.046875-7.554688-3.113281-27.457031-27.457031-27.09375-49.152344-21.929687-62.507813 7.273437-18.878906 27.667969-29.78125 39.617187-30.359375 5.503907-.789062 10.878907 4.226563 11.175782 10.113281.300781 5.886719-4.242188 10.902344-10.132813 11.179688-3.390625.191406-16.53125 5.738281-20.777343 16.726562-5.207032 13.503907 6.441406 29.054688 17.109374 39.742188 4.160157 4.160156 4.160157 10.921875 0 15.082031-2.046874 2.089844-4.777343 3.136719-7.507812 3.136719zm0 0" data-original="#000000" class="active-path" data-old_color="#000000" fill="#455A64"/><path d="m364.519531 330.667969c-2.5625 0-5.140625-.917969-7.167969-2.773438-4.351562-3.96875-4.671874-10.710937-.726562-15.0625l86.804688-95.507812c8.917968-9.792969 10.859374-24.300781 4.824218-36.078125l-14.828125-29.011719c-29.011719 10.878906-54.976562 10.625-77.269531-.832031-27.667969-14.230469-47.617188-45.289063-56.171875-87.445313-1.109375-5.503906 2.242187-10.921875 7.660156-12.414062 5.417969-1.539063 11.070313 1.511719 12.886719 6.824219.425781 1.21875 1.683594 4.886718 8.445312 7.636718 9.621094 3.925782 23 3.371094 31.53125 2.007813-6.273437-8.832031-20.371093-25.410157-44.800781-49.835938-3.050781-3.050781-3.964843-7.636719-2.300781-11.625 1.621094-3.949219 5.503906-6.550781 9.8125-6.550781 60.117188 0 104.597656 17.921875 125.246094 50.433594 10.902344 17.171875 19.753906 46.164062 1.769531 87.914062l16.984375 33.195313c10.046875 19.644531 6.824219 43.816406-8.023438 60.160156l-86.78125 95.484375c-2.113281 2.304688-4.992187 3.480469-7.894531 3.480469zm-34.988281-242.199219c8.621094 20.738281 21.25 36.183594 36.375 43.945312 17.769531 9.132813 39.445312 8.472657 64.511719-1.9375 11.605469-26.691406 11.648437-50.347656.042969-68.609374-13.417969-21.140626-42.132813-34.878907-80.597657-39.125 43.371094 45.992187 37.757813 52.714843 32.746094 58.730468-7.296875 8.765625-35.070313 10.367188-50.195313 7.59375-.984374-.171875-1.941406-.382812-2.882812-.597656zm0 0" data-original="#000000" class="active-path" data-old_color="#000000" fill="#455A64"/><path d="m449.851562 490.667969c-5.886718 0-10.664062-4.78125-10.664062-10.667969 0-33.535156-15.9375-56.234375-29.3125-69.332031-19.160156-18.816407-42.175781-26.261719-55.832031-26.667969-.0625 0-.148438 0-.210938 0-5.804687 0-10.5625-4.652344-10.667969-10.453125-.105468-5.886719 4.566407-10.753906 10.453126-10.878906 22.761718-.128907 50.453124 12.4375 71.191406 32.765625 16.296875 15.980468 35.710937 43.605468 35.710937 84.566406 0 5.886719-4.777343 10.667969-10.667969 10.667969zm0 0" data-original="#000000" class="active-path" data-old_color="#000000" fill="#455A64"/><path d="m385.851562 512c-2.730468 0-5.460937-1.046875-7.550781-3.113281-4.160156-4.160157-4.160156-10.925781 0-15.085938 16-16 21.566407-30.292969 16.511719-42.472656-8.9375-21.609375-48.148438-35.308594-62.292969-35.308594-5.886719 0-10.667969-4.777343-10.667969-10.664062 0-5.890625 4.78125-10.667969 10.667969-10.667969 17.042969 0 68.09375 14.914062 82.003907 48.46875 5.953124 14.402344 7.125 37.460938-21.140626 65.730469-2.070312 2.066406-4.800781 3.113281-7.53125 3.113281zm0 0" data-original="#000000" class="active-path" data-old_color="#000000" fill="#455A64"/><path d="m321.851562 512c-2.730468 0-5.460937-1.046875-7.550781-3.113281-4.160156-4.160157-4.160156-10.925781 0-15.085938 10.667969-10.6875 22.3125-26.238281 17.109375-39.742187-4.246094-11.007813-17.367187-16.535156-20.777344-16.726563-5.890624-.296875-10.414062-5.289062-10.136718-11.175781.300781-5.867188 5.421875-10.839844 11.179687-10.113281 11.945313.574219 32.34375 11.476562 39.617188 30.355469 5.140625 13.355468 5.523437 35.050781-21.929688 62.507812-2.050781 2.046875-4.78125 3.09375-7.511719 3.09375zm0 0" data-original="#000000" class="active-path" data-old_color="#000000" fill="#455A64"/></g> </svg>
