<?xml version="1.0"?>
<svg xmlns="http://www.w3.org/2000/svg" height="512px" viewBox="0 0 513 513.51467" width="512px" class=""><g><path d="m392.347656 67.476562c-35.519531-44.734374-77.695312-67.414062-125.398437-67.414062-55.53125 0-135.507813 5.824219-188.652344 56.234375-39.59375 37.335937-83.945313 98.21875-11.921875 195.457031 2.75 3.691406 7.636719 5.226563 11.902344 3.777344 4.375-1.429688 7.339844-5.527344 7.339844-10.132812 0-88.832032 32.46875-135.488282 96.53125-138.667969 77.355468-3.945313 125.890624 42.003906 138.132812 86.742187v2.859375c0 3.410157 1.621094 6.613281 4.375 8.617188 3.945312 2.859375 7.507812 6.230469 10.347656 9.769531 1.449219 1.816406 3.476563 3.117188 5.78125 3.671875 44.308594 10.898437 81.152344 36.4375 109.503906 75.882813 2.046876 2.816406 5.269532 4.4375 8.660157 4.4375.683593 0 1.386719-.066407 2.089843-.214844 4.097657-.832032 7.359376-3.96875 8.320313-8.042969 6.527344-28.074219-17.042969-147.457031-77.011719-222.976563zm0 0" fill="#607d8b" data-original="#607D8B" class="" data-old_color="#607d8b" style="fill:#4A5568"/><path d="m432.28125 460.117188c-4.242188-2.472657-9.429688-1.515626-12.777344 1.8125l-36.734375-36.734376c.359375-2.175781.574219-4.351562 1.152344-6.527343 1.449219-5.71875-1.984375-11.519531-7.683594-12.992188-5.652343-1.453125-11.496093 1.984375-12.96875 7.679688-5.226562 20.328125-3.222656 39.679687-1.472656 56.765625 1.132813 10.859375 2.175781 21.101562 1.214844 30.101562-.59375 5.527344 3.160156 10.605469 8.640625 11.605469 1.941406.363281 3.96875.535156 6.039062.535156 20.050782 0 45.972656-16.257812 58.453125-37.652343 2.964844-5.101563 1.238281-11.628907-3.863281-14.59375zm0 0" fill="#607d8b" data-original="#607D8B" class="" data-old_color="#607d8b" style="fill:#4A5568"/><path d="m511.898438 434.496094c-1.023438-3.5625-3.691407-9.023438-9.171876-20.03125-6.804687-13.675782-24.898437-50.007813-23.210937-58.410156 5.949219-14.785157.085937-31.0625-5.097656-45.421876-2.648438-7.316406-5.933594-16.445312-5.078125-20.09375.703125-3.007812.085937-6.164062-1.707032-8.683593-39.125-54.398438-87.789062-75.777344-121.75-84.117188-43.308593-10.667969-76.90625-4.648437-77.097656-4.542969-20.609375 1.449219-43.648437 8.425782-70.378906 21.269532-49.898438 23.636718-111.359375 87.359375-156.226562 133.886718-15.59375 16.191407-29.074219 30.164063-38.335938 38.464844-4.074219 3.667969-4.734375 9.835938-1.449219 14.273438 3.265625 4.414062 9.34375 5.628906 14.058594 2.8125 8.746094-5.203125 26.242187 9.921875 44.714844 25.984375 26.515625 23.042969 59.519531 51.480469 99.585937 50.199219 29.671875-1.003907 56.019532 11.136718 77.308594 21.054687 14.421875 6.699219 26.5625 12.375 37.035156 12.375 3.585938 0 6.976563-.664063 10.21875-2.175781 6.527344-3.074219 11.007813-9.066406 13.335938-17.898438 7.058594-27.394531 4.820312-44.289062.253906-78.722656-1.75-13.117188-1.003906-21.695312 2.21875-25.472656 2.175781-2.578125 6.675781-4.117188 14.039062-4.820313 12.691407 16.214844 31.59375 30.742188 53.90625 41.324219 14.144532 6.675781 28.546876 19.261719 42.476563 31.445312 20.136719 17.597657 40 34.496094 58.410156 33.578126 12.84375-.40625 23.828125-6.25 31.808594-16.917969 9.449219-12.714844 12.609375-29.867188 10.132813-39.359375zm0 0" fill="#ffc107" data-original="#FFC107" class="active-path" data-old_color="#ffc107" style="fill:#CBD5E0"/><path d="m429.765625 308.691406c-5.398437-5.375-18.324219-8.679687-28.246094-10.492187-3.5-.664063-6.976562.445312-9.449219 2.941406-2.476562 2.476563-3.585937 6.015625-2.964843 9.453125 1.8125 9.917969 5.097656 22.867188 10.496093 28.242188 4.160157 4.160156 9.621094 6.230468 15.082032 6.230468 5.460937 0 10.921875-2.089844 15.082031-6.230468 8.320313-8.296876 8.320313-21.84375 0-30.144532zm0 0" fill="#455a64" data-original="#455A64" class="" data-old_color="#455a64" style="fill:#455A64"/><path d="m288.261719 224c-22.230469-8.894531-15.105469-30.230469-42.667969-53.332031 25.773438 2.664062 92.4375 10.664062 106.667969 53.332031zm0 0" fill="#ffc107" data-original="#FFC107" class="active-path" data-old_color="#ffc107" style="fill:#CBD5E0"/><path d="m352.238281 234.667969c-4.476562 0-8.617187-2.816407-10.132812-7.296875-6.78125-20.4375-30.378907-34.558594-70.207031-42.15625 2.601562 4.375 4.566406 8.511718 6.378906 12.289062 4.480468 9.429688 6.761718 13.71875 13.910156 16.574219 5.480469 2.199219 8.128906 8.40625 5.929688 13.867187-2.195313 5.460938-8.425782 8.152344-13.84375 5.953126-15.210938-6.078126-20.332032-16.832032-25.28125-27.222657-4.203126-8.851562-8.554688-18.003906-20.289063-27.839843-3.582031-3.027344-4.800781-8.019532-2.964844-12.328126 1.8125-4.332031 6.015625-6.847656 10.921875-6.464843 24.449219 2.539062 98.925782 10.21875 115.691406 60.566406 1.855469 5.589844-1.171874 11.625-6.742187 13.503906-1.109375.363281-2.238281.554688-3.371094.554688zm0 0" data-original="#000000" class="" style="fill:#2D3748" data-old_color="#000000"/><path d="m377.667969 512.339844c-2.089844 0-4.09375-.167969-6.035157-.53125-5.484374-1.023438-9.257812-6.082032-8.640624-11.605469.960937-8.980469-.085938-19.242187-1.214844-30.101563-1.75-17.066406-3.757813-36.4375 1.472656-56.769531 1.46875-5.695312 7.335938-9.128906 12.96875-7.679687 5.71875 1.472656 9.152344 7.277344 7.679688 12.992187-4.265626 16.640625-2.582032 33.238281-.917969 49.28125.769531 7.550781 1.515625 14.804688 1.664062 21.972657 10.730469-3.136719 25.238281-12.523438 33.046875-25.941407 2.964844-5.097656 9.515625-6.785156 14.589844-3.839843 5.078125 2.964843 6.808594 9.492187 3.839844 14.59375-12.476563 21.394531-38.398438 37.628906-58.453125 37.628906zm0 0" data-original="#000000" class="" style="fill:#2D3748" data-old_color="#000000"/><path d="m468.847656 490.667969c-18.945312 0-37.675781-16.363281-57.449218-33.644531-13.910157-12.136719-28.289063-24.703126-42.390626-31.402344-36.886718-17.515625-77.3125-53.375-69.929687-96.769532 1-5.800781 6.613281-9.621093 12.308594-8.722656 5.800781.980469 9.707031 6.484375 8.726562 12.308594-5.398437 31.636719 27.902344 59.582031 58.066407 73.898438 16.75 7.957031 32.257812 21.503906 47.253906 34.601562 16.171875 14.125 32.875 29.015625 43.820312 28.394531 6.230469-.210937 11.242188-2.898437 15.316406-8.253906 5.910157-7.746094 7.425782-18.21875 6.742188-20.949219-.597656-1.984375-4.628906-10.089844-7.851562-16.578125-20.308594-40.851562-29.054688-62.589843-23.722657-75.582031 2.945313-7.167969-1.472656-19.371094-5.375-30.125-4.183593-11.539062-8.128906-22.441406-5.78125-32.296875 4.246094-17.941406-14.484375-130.921875-72.640625-204.457031-31.339844-39.640625-68.011718-59.734375-108.96875-59.734375-51.84375 0-126.253906 5.226562-173.996094 50.410156-36.03125 34.113281-63.148437 74.773437-26.964843 140.265625 8.511719-78.742188 48.640625-123.390625 115.113281-126.675781 89.878906-4.246094 146.367188 50.75 160.191406 103.976562.148438.621094.257813 1.238281.320313 1.855469 10.089843 8.386719 17.089843 18.261719 20.820312 29.441406 1.859375 5.589844-1.171875 11.628906-6.738281 13.484375-5.613281 1.875-11.628906-1.132812-13.503906-6.742187-2.839844-8.535156-8.554688-15.828125-17.472656-22.316406-2.773438-2.003907-4.394532-5.203126-4.394532-8.617188v-3.050781c-12.289062-44.714844-60.203125-90.476563-138.15625-86.742188-64.042968 3.15625-96.511718 49.835938-96.511718 138.667969 0 4.609375-2.964844 8.683594-7.316407 10.132812-4.308593 1.429688-9.175781-.042968-11.925781-3.777343-71.230469-95.871094-31.105469-154.792969 11.820312-195.410157 53.289063-50.414062 133.183594-56.257812 188.671876-56.257812 47.828124 0 90.132812 22.828125 125.738281 67.839844 59.882812 75.734375 83.242187 194.730468 76.648437 222.636718-.851562 3.644532 2.433594 12.777344 5.101563 20.117188 5.203125 14.375 11.113281 30.675781 5.054687 45.460938-1.644531 8.296874 16.320313 44.414062 23.082032 58.003906 5.609374 11.265625 8.339843 16.851562 9.34375 20.480468 2.496093 9.128907-.53125 26.175782-9.917969 38.890626-8 10.859374-19.09375 16.808593-32.023438 17.238281-.382812 0-.746093 0-1.109375 0zm0 0" data-original="#000000" class="" style="fill:#2D3748" data-old_color="#000000"/><path d="m275.011719 513.40625c-10.472657 0-22.65625-5.652344-37.097657-12.371094-21.269531-9.898437-47.59375-22.359375-77.246093-21.054687-40.535157 1.449219-73.046875-27.117188-99.542969-50.15625-18.472656-16.085938-36.011719-31.253907-44.757812-26.003907-4.691407 2.773438-10.792969 1.578126-14.035157-2.839843-3.242187-4.414063-2.625-10.582031 1.449219-14.25 9.195312-8.277344 22.59375-22.1875 38.082031-38.273438 44.925781-46.613281 106.453125-110.441406 156.476563-134.121093 27.074218-12.800782 50.070312-19.710938 70.378906-21.207032 4.289062-.339844 8.46875 2.09375 10.390625 6.039063 3.988281 8.320312 6.421875 12.222656 13.097656 14.910156 5.460938 2.199219 8.109375 8.40625 5.910157 13.867187-2.195313 5.460938-8.425782 8.152344-13.867188 5.933594-11.199219-4.480468-17.066406-11.863281-20.925781-18.710937-16.042969 2.238281-34.390625 8.320312-55.851563 18.476562-46.484375 21.992188-108.90625 86.761719-150.230468 129.640625-7.617188 7.914063-14.742188 15.296875-21.183594 21.824219 12.652344 5.675781 25.644531 16.980469 39.0625 28.652344 24.894531 21.652343 53.140625 46.226562 84.714844 44.925781 34.773437-1.34375 64.9375 12.738281 87.082031 23.019531 9.683593 4.5 25.875 12.136719 29.269531 10.21875 0 0 .894531-.726562 1.75-3.96875 6.015625-22.996093 4.265625-36.265625.019531-68.394531l-.296875-2.195312c-2.625-20.097657-.449218-33.046876 7.144532-42.007813 8.855468-10.453125 22.699218-12.308594 35.074218-12.714844 5.628906-.703125 10.835938 4.394531 11.050782 10.285157.191406 5.886718-4.417969 10.8125-10.285157 11.027343-10.644531.363281-16.832031 2.027344-19.519531 5.207031-3.222656 3.796876-4.011719 12.351563-2.261719 25.429688l.277344 2.175781c4.375 32.980469 6.570313 49.554688-.53125 76.585938-2.285156 8.765625-6.765625 14.78125-13.3125 17.855469-3.265625 1.535156-6.679687 2.195312-10.285156 2.195312zm0 0" data-original="#000000" class="" style="fill:#2D3748" data-old_color="#000000"/><path d="m414.683594 345.089844c-5.460938 0-10.921875-2.09375-15.082032-6.230469-5.398437-5.375-8.683593-18.324219-10.496093-28.246094-.621094-3.457031.46875-6.976562 2.964843-9.449219 2.472657-2.496093 5.949219-3.605468 9.449219-2.945312 9.921875 1.8125 22.847657 5.097656 28.246094 10.496094 8.320313 8.320312 8.320313 21.84375 0 30.164062-4.160156 4.117188-9.621094 6.210938-15.082031 6.210938zm.320312-21.035156c.042969.082031.085938.167968.125.234374l7.105469 7.039063zm0 0" data-original="#000000" class="" style="fill:#2D3748" data-old_color="#000000"/></g> </svg>
