<?xml version="1.0"?>
<svg xmlns="http://www.w3.org/2000/svg" height="512px" viewBox="0 -32 490.64533 490" width="512px" class=""><g><path d="m443.113281 75.992188c-133.160156-117.183594-265.042969-73.300782-309.011719-33.300782-24.339843 1.941406-56.085937 10.050782-69.527343 49.601563-1.066407 3.113281-.636719 6.527343 1.152343 9.28125 1.792969 2.730469 4.757813 4.5 8 4.796875 3.734376.320312 8.898438.429687 15.125.535156h.960938c5.398438 6.25 15.425781 10.15625 27.519531 10.15625 12.054688 0 21.890625-3.714844 27.328125-9.816406 23.402344-.019532 48.128906-.296875 67.179688-.488282l12.265625-.128906c2.132812-.023437 4.097656-.683594 5.761719-1.8125 42.347656-18.6875 143.0625-55.445312 199.230468-11.949218 4.246094 3.308593 10.261719 2.925781 14.082032-.894532l.425781-.425781c2.089843-2.089844 3.199219-4.929687 3.113281-7.894531-.105469-2.945313-1.40625-5.71875-3.605469-7.660156zm0 0" fill="#ffd54f" data-original="#FFD54F" class="" data-old_color="#ffd54f" style="fill:#CBD5E0"/><path d="m437.332031 95.726562c-2.664062 0-5.351562-1-7.421875-3.007812-4.203125-2.964844-5.78125-8.617188-3.433594-13.398438 2.578126-5.289062 8.9375-7.507812 14.25-4.90625 1.066407.511719 3.304688 2.261719 4.136719 3.117188 4.160157 4.160156 4.160157 10.921875 0 15.082031-2.070312 2.070313-4.800781 3.113281-7.53125 3.113281zm-1.554687-9.195312-.152344.234375 1.707031-1.703125zm0 0" data-original="#000000" class="" data-old_color="#000000" style="fill:#2D3748"/><path d="m442.15625 75.992188c-65.964844-51.132813-177.582031-10.046876-222.507812 9.984374-3.839844 1.707032-6.316407 5.761719-6.316407 9.964844 0 5.886719 4.78125 10.664063 10.667969 10.664063 3.542969 0 6.742188-.019531 9.515625-.039063.554687 4.394532 4.179687 8.53125 8.445313 9.941406 3.007812.980469 5.996093 2.003907 9.453124 3.367188 45.929688 16 89.300782 31.105469 89.898438 125.25.339844 47.894531-27.90625 67.710938-60.585938 90.6875-25.496093 17.921875-51.863281 36.4375-64.578124 69.695312-1.214844 3.136719-.851563 6.679688.941406 9.515626 1.789062 2.835937 4.839844 4.671874 8.191406 4.929687l83.199219 6.398437c.277343.019532.53125.019532.808593.019532 1.132813 0 2.242188-.167969 3.328126-.53125 61.570312-20.203125 178.007812-92.886719 178.007812-223.46875.042969-59.328125-16.300781-101.863282-48.46875-126.378906zm0 0" fill="#ffc107" data-original="#FFC107" class="" data-old_color="#ffc107" style="fill:#607D8B"/><path d="m258.902344 99.910156c-3.414063-1.367187-6.804688-2.496094-11.476563-4.054687-2.839843-.960938-5.953125-.683594-8.535156.789062-2.625 1.449219-4.5 3.925781-5.207031 6.828125-3.453125 14.269532-16.210938 24.253906-31.015625 24.253906h-10.667969c-5.886719 0-10.667969 4.78125-10.667969 10.667969 0 3.15625-.167969 6.121094-.640625 10.667969 0 2.921875 1.324219 5.566406 3.394532 7.507812 13.160156 21.757813 17.640624 39.957032 13.675781 55.574219-7.085938 27.816407-40.855469 46.996094-76.589844 67.285157-46.804687 26.558593-99.839844 56.683593-99.839844 114.964843 0 5.566407 4.289063 10.21875 9.835938 10.644531l194.132812 14.933594c.277344.019532.554688.019532.832031.019532 4.394532 0 8.382813-2.707032 9.964844-6.847657 10.386719-27.15625 33-43.050781 56.914063-59.859375 32.832031-23.082031 70.058593-49.238281 69.65625-108.289062-.707031-109.226563-58.113281-129.214844-103.765625-145.085938zm0 0" fill="#ffb300" data-original="#FFB300" class="" data-old_color="#ffb300" style="fill:#4A5568"/><path d="m252.777344 88.089844c-2.066406-2.027344-5.011719-3.15625-7.722656-3.027344-.0625 0-8.277344.210938-21.160157.210938l-12.289062.128906c-20.652344.214844-48.0625.511718-73.152344.511718-5.269531 0-8.9375 1.941407-9.75 7.125-.832031.855469-4.839844 2.6875-11.371094 2.6875-5.652343 0-9.449219-1.449218-10.898437-2.386718-1.28125-4.375-5.269532-7.53125-9.984375-7.640625l-7.210938-.148438c-5.632812-.085937-10.261719-.148437-13.996093-.46875-24.234376-1.34375-46.804688 5.546875-60.371094 18.390625-9.730469 9.214844-14.871094 21.289063-14.871094 34.921875 0 1.085938.171875 2.175781.492188 3.222657 0 0 4.96875 15.761718 8.082031 29.4375.792969 3.457031 3.246093 6.292968 6.550781 7.574218 3.285156 1.28125 7.039062.851563 9.941406-1.195312 4.90625-3.390625 14.914063-7.039063 28.265625-7.039063 21.71875 0 32 8.554688 32 10.667969 0 2.109375-10.28125 10.664062-32 10.664062-14.738281 0-25.066406-4.074218-29.78125-7.871093-2.773437-2.238281-6.484375-2.945313-9.855469-1.878907-3.390624 1.046876-6.035156 3.714844-7.0625 7.125-5.183593 17.28125-3.6875 36.203126 4.652344 59.5625 1.535156 4.289063 5.609375 7.0625 10.046875 7.0625.597657 0 1.21875-.042968 1.835938-.148437 5.097656-.894531 8.832031-5.332031 8.832031-10.515625 0-9.367188 21.441406-10.667969 21.332031-10.667969h53.335938c48.277343 0 89.214843-36.117187 95.273437-84.203125.042969-.363281.085938-.746094.128906-1.128906h.597657c24.703125 0 45.992187-16.683594 51.730469-40.515625 1.066406-4.242187 1.601562-8.554687 1.601562-12.820313 0-2.878906-1.171875-5.632812-3.222656-7.636718zm0 0" fill="#455a64" data-original="#455A64" class="active-path" data-old_color="#455a64" style="fill:#CBD5E0"/><path d="m21.332031 255.769531c-4.4375 0-8.488281-2.773437-10.023437-7.082031-8.34375-23.316406-9.816406-42.878906-4.503906-59.777344 1.066406-3.390625 3.734374-6.035156 7.125-7.039062 3.394531-.980469 7.105468-.253906 9.8125 2.003906 4.417968 3.628906 14.808593 7.894531 29.589843 7.894531 20.652344 0 32-8 32-10.667969 0-2.664062-11.347656-10.664062-32-10.664062-11.410156 0-22.015625 2.601562-28.371093 6.933594-2.902344 1.984375-6.59375 2.410156-9.898438 1.128906-3.285156-1.28125-5.71875-4.09375-6.527344-7.53125-3.136718-13.609375-8.023437-29.246094-8.042968-29.351562-.320313-1.027344-.492188-2.09375-.492188-3.179688 0-13.652344 5.164062-25.75 14.953125-34.988281 13.613281-12.84375 36.035156-19.816407 60.332031-18.324219 4.714844.277344 12.179688.449219 21.097656.574219 4.78125.066406 8.832032 3.265625 10.113282 7.722656 1.429687.941406 5.183594 2.347656 10.835937 2.347656 6.445313 0 10.410157-1.855469 11.242188-2.707031.792969-5.207031 4.503906-7.148438 9.773437-7.167969 49.363282-.042969 106.835938-.792969 106.859375-.792969 3.050781-.167968 5.609375 1.070313 7.613281 3.074219 2.027344 2.027344 3.179688 4.757813 3.179688 7.59375 0 29.398438-23.9375 53.332031-53.332031 53.332031h-.597657c-5.335937 47.9375-46.082031 85.335938-95.402343 85.335938h-53.335938c.109375 0-21.332031 1.320312-21.332031 10.664062 0 5.1875-3.734375 9.625-8.851562 10.519532-.597657.105468-1.21875.148437-1.816407.148437zm3.691407-47.296875c-.085938 3.714844.148437 7.617188.769531 11.777344 8.660156-4.96875 19.328125-6.910156 27.242187-7.125h53.632813c41.171875 0 74.664062-33.492188 74.664062-74.667969 0-5.886719 4.78125-10.664062 10.667969-10.664062h10.667969c13.84375 0 25.683593-8.855469 30.121093-21.1875-18.601562.214843-54.65625.554687-88.296874.621093-5.484376 6.078126-15.363282 9.875-27.160157 9.875-12.09375 0-22.101562-3.902343-27.496093-10.195312-6.550782-.085938-12.011719-.257812-15.789063-.492188-17.917969-.980468-35.136719 3.777344-44.4375 12.546876-5.203125 4.925781-7.914063 10.8125-8.253906 18.003906.894531 2.902344 2.773437 9.214844 4.734375 16.40625 8.085937-2.753906 17.472656-4.269532 27.242187-4.269532 30.402344 0 53.335938 13.761719 53.335938 32 0 18.242188-22.933594 32-53.335938 32-10.21875 0-20.007812-1.640624-28.308593-4.628906zm0 0" data-original="#000000" class="" data-old_color="#000000" style="fill:#2D3748"/><path d="m74.667969 106.4375c-1.132813 0-2.304688-.171875-3.4375-.578125-5.566407-1.875-8.574219-7.933594-6.65625-13.523437 13.484375-39.617188 45.207031-47.703126 69.527343-49.621094 44.222657-40.234375 176.851563-84.140625 310.3125 34.410156 4.417969 3.925781 4.800782 10.667969.898438 15.0625-3.945312 4.394531-10.667969 4.777344-15.0625.894531-137.769531-122.390625-260.925781-55.53125-284.03125-32.425781-1.855469 1.855469-4.332031 2.964844-6.953125 3.09375-30.722656 1.726562-46.507813 11.988281-54.507813 35.453125-1.515624 4.460937-5.652343 7.234375-10.089843 7.234375zm0 0" data-original="#000000" class="" data-old_color="#000000" style="fill:#2D3748"/><path d="m309.332031 426.4375c-4.480469 0-8.660156-2.839844-10.132812-7.339844-1.832031-5.589844 1.214843-11.625 6.804687-13.460937 56.492188-18.601563 163.328125-85.011719 163.328125-203.199219 0-55.679688-15.335937-93.890625-45.566406-113.515625-58.070313-37.695313-156.011719-.960937-195.433594 16.597656-5.355469 2.453125-11.671875 0-14.082031-5.398437-2.386719-5.375.023438-11.667969 5.398438-14.078125 42.582031-18.988281 148.886718-58.410157 215.722656-15 36.691406 23.808593 55.273437 68.035156 55.273437 131.414062 0 130.390625-116.4375 203.199219-178.003906 223.46875-1.089844.363281-2.199219.511719-3.308594.511719zm0 0" data-original="#000000" class="" data-old_color="#000000" style="fill:#2D3748"/><path d="m32 405.101562c-5.886719 0-10.667969-4.777343-10.667969-10.664062 0-58.304688 53.035157-88.425781 99.839844-115.007812 35.757813-20.308594 69.527344-39.488282 76.589844-67.308594 4.074219-16.0625-.769531-34.835938-14.808594-57.386719-3.113281-4.992187-1.597656-11.5625 3.414063-14.675781 4.992187-3.117188 11.5625-1.601563 14.679687 3.414062 17.277344 27.730469 22.953125 51.925782 17.363281 73.917969-9.300781 36.628906-48.660156 58.988281-86.71875 80.597656-45.78125 26.003907-89.023437 50.582031-89.023437 96.449219 0 5.910156-4.78125 10.664062-10.667969 10.664062zm0 0" data-original="#000000" class="" data-old_color="#000000" style="fill:#2D3748"/><path d="m224 426.4375c-1.023438 0-2.046875-.148438-3.09375-.449219-5.632812-1.707031-8.832031-7.636719-7.125-13.289062 11.390625-37.78125 39.660156-57.621094 66.988281-76.84375 32.660157-22.953125 60.882813-42.773438 60.542969-90.667969-.660156-94.398438-45.375-109.90625-92.757812-126.3125l-6.785157-2.367188c-5.566406-1.941406-8.488281-8.023437-6.527343-13.589843 1.941406-5.589844 8.023437-8.535157 13.589843-6.53125l6.742188 2.328125c49.832031 17.257812 106.324219 36.84375 107.09375 146.324218.402343 59.074219-36.800781 85.226563-69.632813 108.289063-25.492187 17.898437-49.558594 34.816406-58.835937 65.535156-1.367188 4.609375-5.613281 7.574219-10.199219 7.574219zm0 0" data-original="#000000" class="" data-old_color="#000000" style="fill:#2D3748"/></g> </svg>
