<?xml version="1.0"?>
<svg xmlns="http://www.w3.org/2000/svg" height="512px" viewBox="0 -11 512.0272 512" width="512px" class=""><g><path d="m506.488281 86.667969c-4.542969-2.472657-10.195312-1.386719-13.441406 2.648437-21.671875 26.792969-116.714844-2.476562-173.503906-19.96875-9.085938-2.796875-17.621094-5.417968-25.34375-7.703125 2.925781-5.824219 4.480469-12.285156 4.480469-18.964843 0-23.53125-19.136719-42.6679692-42.664063-42.6679692-23.53125 0-42.667969 19.1367192-42.667969 42.6679692 0 6.679687 1.558594 13.140624 4.5 18.964843-7.722656 2.261719-16.277344 4.90625-25.363281 7.703125-56.789063 17.492188-151.808594 46.761719-173.503906 19.96875-3.265625-4.035156-8.941407-5.144531-13.441407-2.648437-4.542968 2.496093-6.632812 7.894531-4.949218 12.78125 13.121094 38.464843 34.773437 76.949219 96.449218 71.167969 22.292969-2.089844 45.140626-10.644532 65.320313-18.199219 14.378906-5.375 36.117187-13.523438 40.855469-10.367188 10.429687 31.273438 22.976562 246.933594 12.160156 267.691407-4.78125 6.570312-18.625 12.074218-37.953125 15.101562-16.257813 2.519531-28.074219 16.257812-28.074219 32.769531 0 18.21875 14.824219 33.066407 33.066406 33.066407h147.199219c18.21875 0 33.066407-14.824219 33.066407-33.171876 0-16.40625-11.816407-30.144531-28.050782-32.664062-19.351562-3.027344-33.21875-8.511719-37.78125-14.761719-11.03125-21.078125 1.511719-236.734375 12.03125-268.414062 4.714844-2.710938 26.386719 5.394531 40.808594 10.792969 20.160156 7.550781 43.03125 16.085937 65.324219 18.199218 61.632812 5.609375 83.304687-32.726562 96.449219-71.191406 1.664062-4.90625-.429688-10.304688-4.972657-12.800781zm0 0" fill="#cfd8dc" data-original="#CFD8DC" class="" data-old_color="#cfd8dc" style="fill:#CBD5E0"/><path d="m501.347656 320.011719h-128c-5.886718 0-10.667968 4.78125-10.667968 10.667969 0 41.175781 33.492187 74.667968 74.667968 74.667968 41.171875 0 74.667969-33.492187 74.667969-74.667968 0-5.886719-4.78125-10.667969-10.667969-10.667969zm0 0" fill="#ffc107" data-original="#FFC107" class="active-path" data-old_color="#ffc107" style="fill:#4A5568"/><path d="m138.679688 320.011719h-128c-5.886719 0-10.664063 4.78125-10.664063 10.667969 0 41.175781 33.492187 74.667968 74.664063 74.667968 41.175781 0 74.667968-33.492187 74.667968-74.667968 0-5.886719-4.777344-10.667969-10.667968-10.667969zm0 0" fill="#ffc107" data-original="#FFC107" class="active-path" data-old_color="#ffc107" style="fill:#4A5568"/><path d="m329.613281 490.679688h-147.199219c-18.242187 0-33.066406-14.824219-33.066406-33.066407 0-16.511719 11.816406-30.25 28.074219-32.789062 19.328125-3.027344 33.195313-8.511719 37.953125-15.105469 10.816406-20.753906-1.730469-236.414062-12.160156-267.6875-4.738282-3.136719-26.476563 5.011719-40.898438 10.410156-20.160156 7.550782-43.007812 16.085938-65.300781 18.195313-61.675781 5.761719-83.304687-32.722657-96.445313-71.1875-1.664062-4.886719.425782-10.285157 4.949219-12.78125 4.5-2.496094 10.195313-1.386719 13.4375 2.648437 21.71875 26.792969 116.738281-2.476562 173.527344-19.96875 9.085937-2.796875 17.621094-5.417968 25.34375-7.703125-2.921875-5.824219-4.480469-12.285156-4.480469-18.964843 0-23.53125 19.136719-42.6679692 42.667969-42.6679692 23.527344 0 42.664063 19.1367192 42.664063 42.6679692 0 6.679687-1.554688 13.140624-4.5 18.964843 7.722656 2.261719 16.277343 4.90625 25.34375 7.703125 56.789062 17.492188 151.828124 46.761719 173.523437 19.988282 3.246094-4.03125 8.898437-5.121094 13.441406-2.644532 4.542969 2.496094 6.636719 7.894532 4.949219 12.777344-13.121094 38.464844-34.816406 76.800781-96.449219 71.191406-22.292969-2.113281-45.140625-10.667968-65.320312-18.199218-14.421875-5.375-36.097657-13.503907-40.8125-10.792969-10.515625 31.679687-23.058594 247.335937-12.03125 268.414062 4.566406 6.25 18.410156 11.753907 37.78125 14.761719 16.257812 2.519531 28.074219 16.257812 28.074219 32.664062 0 18.347657-14.824219 33.171876-33.066407 33.171876zm-129.152343-370.707032c4.351562 0 8.320312.722656 11.863281 2.429688 5.332031 2.539062 9.195312 7.019531 11.15625 12.90625 8.640625 25.941406 28.246093 260.78125 9.171875 287-8.445313 11.605468-25.917969 19.5625-51.945313 23.613281-5.824219.898437-10.027343 5.761719-10.027343 11.585937 0 6.570313 5.269531 11.839844 11.734374 11.839844h147.199219c6.464844 0 11.734375-5.269531 11.734375-11.734375 0-5.929687-4.203125-10.792969-10.007812-11.691406-26.046875-4.050781-43.519532-12.007813-51.964844-23.636719-19.09375-26.21875.511719-261.035156 9.171875-286.976562 1.984375-5.910156 5.824219-10.367188 11.15625-12.90625 13.441406-6.441406 32.855469.875 57.453125 10.070312 18.921875 7.082032 40.382812 15.105469 59.839844 16.9375 32.46875 3.03125 50.386718-8.511718 62.699218-30.078125-41.984374 8.789063-109.632812-12.054687-166.464843-29.589843-15.402344-4.757813-29.164063-9.003907-40.066407-11.796876-3.921874-1.003906-6.910156-4.160156-7.761718-8.109374-.832032-3.964844.617187-8.039063 3.796875-10.578126 5.183593-4.117187 8.148437-10.15625 8.148437-16.578124 0-11.753907-9.558594-21.332032-21.332031-21.332032-11.777344 0-21.335937 9.578125-21.335937 21.332032 0 6.421874 2.964843 12.460937 8.128906 16.578124 3.15625 2.515626 4.628906 6.613282 3.796875 10.578126-.851563 3.949218-3.859375 7.105468-7.765625 8.109374-10.902344 2.792969-24.660156 7.058594-40.0625 11.796876-56.855469 17.515624-124.503906 38.355468-166.464844 29.566406 12.308594 21.570312 30.039062 33.21875 62.699219 30.082031 19.457031-1.8125 40.917969-9.855469 59.839843-16.941406 18.113282-6.761719 33.429688-12.476563 45.609376-12.476563zm0 0" data-original="#000000" class="" data-old_color="#000000" style="fill:#2D3748"/><path d="m501.347656 341.347656h-128c-3.5 0-6.761718-1.730468-8.769531-4.585937-1.984375-2.882813-2.429687-6.550781-1.214844-9.816407l64-170.664062c3.113281-8.320312 16.832031-8.320312 19.96875 0l64 170.664062c1.238281 3.285157.765625 6.957032-1.21875 9.816407-2.003906 2.855469-5.265625 4.585937-8.765625 4.585937zm-112.597656-21.335937h97.214844l-48.617188-129.621094zm0 0" data-original="#000000" class="" data-old_color="#000000" style="fill:#2D3748"/><path d="m437.347656 405.347656c-41.175781 0-74.667968-33.492187-74.667968-74.667968 0-5.886719 4.78125-10.667969 10.667968-10.667969 5.886719 0 10.667969 4.78125 10.667969 10.667969 0 29.398437 23.914063 53.332031 53.332031 53.332031 29.417969 0 53.332032-23.933594 53.332032-53.332031 0-5.886719 4.78125-10.667969 10.667968-10.667969 5.886719 0 10.667969 4.78125 10.667969 10.667969 0 41.175781-33.496094 74.667968-74.667969 74.667968zm0 0" data-original="#000000" class="" data-old_color="#000000" style="fill:#2D3748"/><path d="m138.679688 341.347656h-128c-3.496094 0-6.761719-1.730468-8.765626-4.585937-1.9843745-2.882813-2.433593-6.550781-1.21875-9.816407l64-170.664062c3.117188-8.320312 16.832032-8.320312 19.96875 0l64 170.664062c1.238282 3.285157.769532 6.957032-1.214843 9.816407-2.007813 2.855469-5.269531 4.585937-8.769531 4.585937zm-112.597657-21.335937h97.21875l-48.621093-129.621094zm0 0" data-original="#000000" class="" data-old_color="#000000" style="fill:#2D3748"/><path d="m74.679688 405.347656c-41.171876 0-74.664063-33.492187-74.664063-74.667968 0-5.886719 4.777344-10.667969 10.664063-10.667969 5.890624 0 10.667968 4.78125 10.667968 10.667969 0 29.398437 23.914063 53.332031 53.332032 53.332031 29.417968 0 53.335937-23.933594 53.335937-53.332031 0-5.886719 4.777344-10.667969 10.664063-10.667969 5.890624 0 10.667968 4.78125 10.667968 10.667969 0 41.175781-33.492187 74.667968-74.667968 74.667968zm0 0" data-original="#000000" class="" data-old_color="#000000" style="fill:#2D3748"/></g> </svg>
