<?xml version="1.0"?>
<svg xmlns="http://www.w3.org/2000/svg" height="512px" viewBox="0 0 512 512.80206" width="512px" class="hovered-paths"><g><path d="m505.304688 128.480469c-4.074219-1.855469-8.980469-.957031-12.136719 2.304687-15.550781 16.214844-27.242188 29.25-36.203125 39.234375-8.257813 9.214844-16.085938 17.960938-19.925782 20.90625-6.996093-3.542969-24.808593-16.449219-35.882812-24.449219-8.339844-6.039062-16.339844-11.820312-22.378906-15.851562-1.152344-.765625-2.496094-.765625-3.796875-1.023438 20.542969-10.261718 38.785156-25.386718 50.199219-49.535156.9375-2.027344 1.257812-4.289062.851562-6.464844-6.890625-37.972656-89.492188-84.457031-179.15625-71.273437l-1.175781-2.347656c-9.277344-18.558594-34.515625-22.65625-55.359375-18.496094-20.96875 4.222656-36.179688 22.785156-36.074219 45.761719l2.558594 16.746094c-52.90625 43.605468-88.125 112.722656-92.308594 181.652343-.765625 2.476563-6.699219 9.769531-11.476563 15.617188-17.75 21.738281-47.421874 58.132812-52.585937 112.339843-.44921875 4.523438 2.046875 8.8125 6.164063 10.710938 1.429687.660156 2.945312.957031 4.460937.957031 2.835937 0 5.628906-1.128906 7.699219-3.285156 15.554687-16.210937 27.242187-29.246094 36.203125-39.230469 8.257812-9.214844 16.085937-17.960937 19.925781-20.90625 6.996094 3.542969 24.808594 16.449219 35.882812 24.449219 8.339844 6.035156 16.339844 11.816406 22.378907 15.847656 1.152343.769531 2.496093.769531 3.796875 1.046875-20.542969 10.261719-38.785156 25.386719-50.199219 49.535156-.9375 2.027344-1.257813 4.289063-.851563 6.464844 6.890626 37.953125 89.449219 84.414063 179.15625 71.273438l1.175782 2.347656c7.125 14.25 23.65625 19.988281 40.402344 19.988281 5.058593 0 10.136718-.511719 14.976562-1.492187 20.972656-4.203125 36.183594-22.761719 36.054688-45.761719l-2.558594-16.746094c52.90625-43.605469 88.125-112.722656 92.308594-181.652343.765624-2.472657 6.699218-9.769532 11.476562-15.617188 17.75-21.738281 47.425781-58.132812 52.585938-112.339844.425781-4.523437-2.046876-8.8125-6.1875-10.710937zm-356.480469 220.417969c-2.410157-5.355469-6.675781-12.5-12.09375-21.570313-11.710938-19.582031-31.296875-52.394531-29.695313-69.011719 1.472656-15.167968 29.460938-44.691406 99.839844-67.265625 1.066406 3.90625 2.859375 7.597657 5.3125 10.902344 6.035156 8.042969 15.292969 12.671875 25.40625 12.671875h11.988281c15.210938 0 28.417969-10.816406 31.382813-25.726562l3.199218-16.042969 5.761719-1.003907c22.632813-3.242187 49.386719-7.101562 73.875-16.917968-1.40625 2.816406-2.023437 5.953125-.679687 8.960937 2.410156 5.355469 6.675781 12.503907 12.09375 21.570313 11.710937 19.582031 31.296875 52.394531 29.695312 69.011718-1.472656 15.167969-29.460937 44.695313-99.839844 67.265626-1.042968-3.90625-2.835937-7.597657-5.3125-10.902344-6.035156-8.042969-15.292968-12.671875-25.40625-12.671875h-11.988281c-15.210937 0-28.417969 10.816406-31.382812 25.726562l-3.199219 16.042969-5.761719 1.003906c-22.632812 3.242188-49.386719 7.101563-73.875 16.917969 1.429688-2.796875 2.027344-5.953125.679688-8.960937zm0 0" fill="#2196f3" data-original="#2196F3" class="active-path" data-old_color="#2196f3" style="fill:#C0C9D3"/><path d="m259.460938 448.035156c-5.164063 0-9.683594-3.734375-10.515626-8.984375-.917968-5.820312 3.027344-11.285156 8.851563-12.222656 36.757813-5.867187 73.558594-34.539063 98.453125-76.691406 3.007812-5.058594 9.558594-6.722657 14.613281-3.757813 5.078125 3.011719 6.742188 9.539063 3.753907 14.613282-28.074219 47.554687-70.484376 80.023437-113.449219 86.890624-.597657.109376-1.175781.152344-1.707031.152344zm0 0" data-original="#000000" class="hovered-path" data-old_color="#000000" style="fill:#4A5568"/><path d="m306.648438 512.800781c-16.746094 0-33.277344-5.738281-40.402344-19.988281l-1.175782-2.347656c-89.707031 13.121094-172.265624-33.320313-179.15625-71.273438-.40625-2.199218-.105468-4.4375.851563-6.464844 26.605469-56.253906 89.386719-65.214843 135.234375-71.765624l5.757812-1 3.203126-16.042969c2.964843-14.890625 16.167968-25.730469 31.378906-25.730469h11.992187c10.109375 0 19.367188 4.609375 25.40625 12.671875 2.472657 3.285156 4.265625 7 5.3125 10.902344 70.355469-22.570313 98.367188-52.09375 99.839844-67.261719 1.597656-16.640625-17.984375-49.429688-29.695313-69.015625-5.398437-9.066406-9.6875-16.214844-12.097656-21.566406-1.941406-4.332031-.789062-9.429688 2.835938-12.503907 3.628906-3.070312 8.875-3.390624 12.824218-.746093 6.058594 4.03125 14.035157 9.8125 22.378907 15.851562 11.070312 8 28.882812 20.90625 35.882812 24.449219 3.816407-2.945312 11.667969-11.691406 19.925781-20.90625 8.957032-10.007812 20.648438-23.042969 36.199219-39.234375 3.160157-3.261719 8.066407-4.179687 12.140625-2.304687 4.117188 1.898437 6.613282 6.1875 6.164063 10.710937-5.160157 54.207031-34.835938 90.601563-52.585938 112.339844-4.777343 5.847656-10.710937 13.140625-11.476562 15.617187-4.160157 68.929688-39.382813 138.046875-92.308594 181.652344l2.558594 16.746094c.128906 22.976562-15.105469 41.539062-36.054688 45.761718-4.777343.917969-9.875 1.449219-14.933593 1.449219zm-35.625-45.011719c3.988281 0 7.703124 2.238282 9.535156 5.886719l4.800781 9.601563c3.796875 7.59375 19.5625 9.597656 32.105469 7.101562 11.03125-2.21875 19.03125-11.988281 19.03125-23.207031l-3.371094-21.226563c-.578125-3.820312.9375-7.660156 3.988281-10.027343 50.964844-39.660157 85.121094-104.960938 89.132813-170.390625-.023438-7.660156 6.058594-15.105469 16.148437-27.476563 12.332031-15.105469 29.164063-35.753906 39.445313-63.746093-3.265625 3.605468-6.230469 6.933593-8.960938 9.964843-19.347656 21.589844-26.515625 29.757813-37.164062 28.5-5.460938-.617187-12.839844-4.777343-29.394532-16.40625 11.347657 20.480469 21.546876 43.007813 19.882813 60.160157-2.433594 25.132812-37.546875 63.703124-128.492187 89.75-3.710938 1.089843-7.742188.023437-10.496094-2.707032-2.75-2.753906-3.777344-6.785156-2.6875-10.496094.9375-3.246093.296875-6.679687-1.769532-9.410156-1.152343-1.535156-3.796874-4.136718-8.363281-4.136718h-11.988281c-5.078125 0-9.472656 3.605468-10.453125 8.554687l-4.632813 23.1875c-.871093 4.308594-4.265624 7.636719-8.59375 8.40625l-3.949218.703125c-3.113282.578125-6.230469 1.132812-9.515625 1.664062-51.921875 7.425782-96.53125 16.832032-117.394531 56.339844 9.257812 23.46875 77.246093 63.363282 156.714843 50.605469l4.457031-1.003906c.640626-.128907 1.300782-.191407 1.984376-.191407zm0 0" data-original="#000000" class="hovered-path" data-old_color="#000000" style="fill:#4A5568"/><path d="m146.542969 167.882812c-1.835938 0-3.710938-.46875-5.417969-1.46875-5.078125-3.007812-6.742188-9.558593-3.753906-14.636718 28.074218-47.550782 70.484375-80.019532 113.449218-86.890625 5.929688-.9375 11.308594 3.050781 12.222657 8.855469.917969 5.824218-3.027344 11.285156-8.851563 12.222656-36.757812 5.867187-73.558594 34.539062-98.453125 76.691406-1.984375 3.351562-5.546875 5.226562-9.195312 5.226562zm0 0" data-original="#000000" class="hovered-path" data-old_color="#000000" style="fill:#4A5568"/><path d="m11.097656 385.292969c-1.515625 0-3.027344-.320313-4.457031-.960938-4.117187-1.898437-6.6132812-6.1875-6.167969-10.707031 5.164063-54.210938 34.839844-90.605469 52.589844-112.34375 4.777344-5.84375 10.707031-13.140625 11.476562-15.613281 4.160157-68.929688 39.378907-138.050781 92.308594-181.65625l-2.558594-16.746094c-.128906-22.996094 15.082032-41.558594 36.050782-45.78125 20.863281-4.160156 46.082031-.0625 55.359375 18.496094l1.175781 2.347656c89.664062-13.183594 172.265625 33.320313 179.15625 71.273437.40625 2.199219.105469 4.4375-.851562 6.464844-26.605469 56.253906-89.386719 65.214844-135.234376 71.765625l-5.757812 1.003907-3.203125 16.039062c-2.964844 14.890625-16.167969 25.730469-31.378906 25.730469h-11.988281c-10.113282 0-19.371094-4.609375-25.410157-12.671875-2.472656-3.285156-4.265625-7-5.3125-10.902344-70.378906 22.59375-98.386719 52.117188-99.839843 67.285156-1.597657 16.640625 17.984374 49.429688 29.695312 69.011719 5.398438 9.070313 9.6875 16.214844 12.097656 21.570313 1.941406 4.332031.789063 9.429687-2.835937 12.5-3.628907 3.09375-8.875 3.371093-12.824219.746093-6.058594-4.03125-14.035156-9.8125-22.378906-15.847656-11.070313-8-28.882813-20.90625-35.882813-24.449219-3.816406 2.945313-11.667969 11.691406-19.921875 20.90625-8.960937 10.003906-20.652344 23.039063-36.203125 39.230469-2.070312 2.15625-4.867187 3.308594-7.703125 3.308594zm193.878906-363.902344c-3.519531 0-7.105468.339844-10.453124 1.023437-11.03125 2.195313-19.03125 11.964844-19.03125 23.210938l3.371093 21.226562c.574219 3.816407-.9375 7.65625-3.988281 10.023438-50.964844 39.660156-85.121094 104.960938-89.132812 170.390625.023437 7.660156-6.058594 15.105469-16.148438 27.476563-12.332031 15.105468-29.164062 35.757812-39.445312 63.746093 3.265624-3.605469 6.230468-6.933593 8.960937-9.964843 19.347656-21.589844 26.496094-29.652344 37.160156-28.5 5.464844.617187 12.84375 4.777343 29.398438 16.40625-11.347657-20.480469-21.546875-43.007813-19.882813-60.160157 2.433594-25.132812 37.546875-63.703125 128.492188-89.75 3.753906-1.066406 7.765625 0 10.496094 2.710938 2.75 2.75 3.773437 6.78125 2.6875 10.496093-.9375 3.242188-.300782 6.675782 1.769531 9.40625 1.152343 1.535157 3.796875 4.136719 8.363281 4.136719h11.988281c5.078125 0 9.472657-3.601562 10.453125-8.554687l4.632813-23.1875c.871093-4.308594 4.265625-7.636719 8.59375-8.40625l3.949219-.703125c3.113281-.574219 6.226562-1.128907 9.515624-1.664063 51.921876-7.425781 96.53125-16.832031 117.394532-56.339844-9.257813-23.46875-77.226563-63.382812-156.714844-50.605468l-4.457031 1.003906c-4.777344.917969-9.429688-1.429688-11.5625-5.695312l-4.800781-9.601563c-2.75-5.566406-11.96875-8.125-21.609376-8.125zm0 0" data-original="#000000" class="hovered-path" data-old_color="#000000" style="fill:#4A5568"/></g> </svg>
