<?xml version="1.0"?>
<svg xmlns="http://www.w3.org/2000/svg" height="512px" viewBox="0 -11 512.00066 512" width="512px" class=""><g><path d="m398.375 204.660156c4.734375-12.671875 6.953125-26.945312 6.953125-44.648437 0-33.347657-32.019531-64.195313-62.996094-94.039063-20.480469-19.710937-43.671875-42.046875-43.671875-55.296875 0-4.308593-2.601562-8.210937-6.589844-9.855469-3.96875-1.664062-8.578124-.7460932-11.628906 2.304688l-33.363281 33.363281c-3.667969 3.671875-4.160156 9.453125-1.171875 13.71875 9.386719 13.269531 23.765625 27.113281 38.972656 41.769531 26.476563 25.515626 56.449219 54.421876 56.449219 78.699219 0 12.011719-1.171875 21.398438-3.539063 28.671875-.363281 1.089844-.535156 2.199219-.535156 3.328125v85.335938c0 1.128906.191406 2.238281.535156 3.324219 2.367188 7.277343 3.539063 16.664062 3.539063 28.675781 0 24.277343-29.972656 53.183593-56.449219 78.675781-15.207031 14.65625-29.585937 28.5-38.972656 41.769531-3.007812 4.246094-2.496094 10.027344 1.171875 13.71875l33.363281 33.363281c2.050782 2.050782 4.78125 3.136719 7.554688 3.136719 1.363281 0 2.773437-.253906 4.074218-.808593 3.988282-1.644532 6.589844-5.546876 6.589844-9.855469 0-13.25 23.191406-35.585938 43.671875-55.296875 30.976563-29.847656 62.996094-60.695313 62.996094-94.039063 0-17.707031-2.21875-31.976562-6.953125-44.648437zm0 0" fill="#ffc107" data-original="#FFC107" class="active-path" data-old_color="#ffc107" style="fill:#CFD8DC"/><path d="m148.199219 240.566406-21.335938-42.667968c-1.8125-3.605469-5.503906-5.886719-9.535156-5.886719h-106.667969c-4.308594 0-8.210937 2.601562-9.855468 6.589843-1.640626 3.988282-.7226568 8.578126 2.304687 11.625l35.136719 35.117188-35.113282 35.113281c-3.0507808 3.050781-3.96875 7.636719-2.304687 11.628907 1.664063 3.988281 5.523437 6.589843 9.832031 6.589843h106.667969c4.03125 0 7.722656-2.28125 9.535156-5.886719l21.335938-42.667968c1.511719-3.007813 1.511719-6.546875 0-9.554688zm0 0" fill="#f44336" data-original="#F44336" class="" data-old_color="#f44336" style="fill:#CFD8DC"/><path d="m479.996094 256.011719h-341.335938c-5.886718 0-10.664062-4.78125-10.664062-10.667969s4.777344-10.667969 10.664062-10.667969h341.335938c5.886718 0 10.664062 4.78125 10.664062 10.667969s-4.777344 10.667969-10.664062 10.667969zm0 0" data-original="#000000" class="" data-old_color="#000000" style="fill:#4A5568"/><path d="m458.660156 298.675781c-2.730468 0-5.460937-1.042969-7.550781-3.113281-4.160156-4.160156-4.160156-10.921875 0-15.082031l35.136719-35.136719-35.113282-35.117188c-4.160156-4.15625-4.160156-10.921874 0-15.082031 4.160157-4.160156 10.921876-4.160156 15.082032 0l42.664062 42.667969c4.160156 4.160156 4.160156 10.921875 0 15.082031l-42.664062 42.667969c-2.089844 2.070312-4.820313 3.113281-7.554688 3.113281zm0 0" data-original="#000000" class="" data-old_color="#000000" style="fill:#4A5568"/><path d="m347.921875 213.34375c-1.109375 0-2.21875-.171875-3.328125-.535156-5.589844-1.832032-8.640625-7.871094-6.785156-13.460938 2.347656-7.273437 3.519531-16.660156 3.519531-28.671875 0-24.277343-29.972656-53.183593-56.449219-78.675781-15.207031-14.65625-29.585937-28.503906-38.972656-41.773438-3.007812-4.242187-2.496094-10.023437 1.171875-13.714843l33.363281-33.367188c3.050782-3.0703122 7.660156-3.964843 11.628906-2.300781 3.988282 1.621094 6.589844 5.523438 6.589844 9.832031 0 13.25 23.191406 35.585938 43.671875 55.296875 30.976563 29.84375 62.996094 60.691406 62.996094 94.039063 0 18.621093-2.453125 33.449219-7.722656 46.632812-2.195313 5.460938-8.40625 8.171875-13.84375 5.953125-5.484375-2.199218-8.128907-8.40625-5.933594-13.867187 2.625-6.679688 6.167969-17.921875 6.167969-38.71875 0-24.277344-29.996094-53.164063-56.46875-78.679688-18.902344-18.21875-36.011719-34.667969-44.503906-50.601562l-14.207032 14.207031c8.191406 9.792969 19.265625 20.480469 30.890625 31.679688 30.953125 29.867187 62.953125 60.714843 62.953125 94.058593 0 14.316407-1.492187 25.878907-4.628906 35.328125-1.449219 4.5-5.628906 7.339844-10.109375 7.339844zm0 0" data-original="#000000" class="" data-old_color="#000000" style="fill:#4A5568"/><path d="m287.996094 490.675781c-2.773438 0-5.503906-1.085937-7.554688-3.113281l-33.363281-33.367188c-3.667969-3.667968-4.160156-9.449218-1.171875-13.714843 9.386719-13.269531 23.765625-27.117188 38.972656-41.773438 26.476563-25.511719 56.449219-54.417969 56.449219-78.695312 0-12.011719-1.171875-21.398438-3.539063-28.675781-1.859374-5.609376 1.214844-11.625 6.78125-13.460938 5.570313-1.855469 11.648438 1.21875 13.460938 6.808594 3.136719 9.449218 4.628906 21.011718 4.628906 35.328125 0 33.34375-32 64.191406-62.953125 94.035156-11.625 11.199219-22.699219 21.886719-30.890625 31.679687l14.207032 14.207032c8.492187-15.914063 25.601562-32.382813 44.503906-50.601563 26.472656-25.492187 56.46875-54.378906 56.46875-78.65625 0-20.800781-3.542969-32.042969-6.1875-38.699219-2.199219-5.460937.449218-11.667968 5.929687-13.867187 5.460938-2.21875 11.671875.472656 13.847657 5.953125 5.289062 13.164062 7.742187 27.988281 7.742187 46.613281 0 33.34375-32.019531 64.191407-62.996094 94.039063-20.480469 19.710937-43.671875 42.046875-43.671875 55.296875 0 4.308593-2.601562 8.210937-6.589844 9.855469-1.300781.554687-2.710937.808593-4.074218.808593zm0 0" data-original="#000000" class="" data-old_color="#000000" style="fill:#4A5568"/><path d="m134.585938 174.75c-2.730469 0-5.460938-1.042969-7.550782-3.113281-4.160156-4.160157-4.160156-10.921875 0-15.082031l120.042969-120.042969c4.160156-4.160157 10.921875-4.160157 15.082031 0 4.160156 4.160156 4.160156 10.921875 0 15.082031l-120.042968 120.042969c-2.089844 2.089843-4.800782 3.113281-7.53125 3.113281zm0 0" data-original="#000000" class="" data-old_color="#000000" style="fill:#4A5568"/><path d="m254.628906 457.3125c-2.730468 0-5.460937-1.046875-7.550781-3.117188l-120.042969-120.042968c-4.160156-4.160156-4.160156-10.921875 0-15.082032 4.160156-4.160156 10.921875-4.160156 15.082032 0l120.042968 120.042969c4.160156 4.160157 4.160156 10.921875 0 15.082031-2.089844 2.070313-4.820312 3.117188-7.53125 3.117188zm0 0" data-original="#000000" class="" data-old_color="#000000" style="fill:#4A5568"/><path d="m117.328125 298.675781h-106.667969c-4.308594 0-8.210937-2.601562-9.855468-6.589843-1.640626-3.992188-.7226568-8.578126 2.304687-11.628907l35.136719-35.113281-35.113282-35.117188c-3.0507808-3.070312-3.96875-7.636718-2.328124-11.625 1.644531-3.988281 5.546874-6.589843 9.855468-6.589843h106.667969c4.03125 0 7.722656 2.28125 9.535156 5.886719l21.335938 42.667968c1.492187 3.007813 1.492187 6.546875 0 9.535156l-21.335938 42.664063c-1.8125 3.628906-5.503906 5.910156-9.535156 5.910156zm-80.917969-21.332031h74.328125l16-32-16-32h-74.328125l24.449219 24.449219c4.160156 4.15625 4.160156 10.921875 0 15.082031zm0 0" data-original="#000000" class="" data-old_color="#000000" style="fill:#4A5568"/></g> </svg>
