<?xml version="1.0"?>
<svg xmlns="http://www.w3.org/2000/svg" height="512px" viewBox="-75 0 512 512.14933" width="512px" class=""><g><path d="m245.621094 64.726562c-4.84375 0-8.9375-3.222656-10.21875-7.636718-.40625-1.195313-.660156-2.519532-.660156-3.671875 0-5.886719 4.777343-10.664063 10.664062-10.664063 4.84375 0 8.941406 3.21875 10.21875 7.636719.40625 1.195313.640625 2.496094.640625 3.648437.023437 5.90625-4.757813 10.6875-10.644531 10.6875zm0 0" data-original="#000000" class="" data-old_color="#000000" style="fill:#2D3748"/><path d="m256.074219.0859375c-4.308594 0-8.210938 2.6015625-9.855469 6.5898435-1.644531 3.992188-.726562 8.578125 2.304688 11.628907 19.09375 19.09375 29.886718 31.59375 35.390624 38.867187-6.785156.75-15.894531.726563-22.484374-1.960937-4.695313-1.898438-5.589844-4.222657-5.867188-4.972657-2.003906-5.203125-7.660156-8-12.96875-6.398437-5.335938 1.578125-8.554688 6.976562-7.425781 12.417968 10.15625 48.382813 45.652343 72 108.4375 72 2.878906 0 5.800781-.042968 8.808593-.152343 5.761719-.191407 10.304688-4.90625 10.304688-10.664063.023438-72.472656-17.832031-117.3554685-106.644531-117.3554685zm0 0" fill="#607d8b" data-original="#607D8B" class="active-path" data-old_color="#607d8b" style="fill:#4A5568"/><path d="m120.117188 43.585938c-5.3125-1.539063-11.027344 1.363281-12.929688 6.589843-.277344.769531-1.148438 3.15625-5.800781 5.054688-6.59375 2.710937-15.636719 2.730469-22.527344 1.964843 5.503906-7.273437 16.320313-19.796874 35.414063-38.914062 3.050781-3.050781 3.964843-7.613281 2.324218-11.605469-1.644531-3.988281-5.546875-6.5898435-9.855468-6.5898435-88.8125 0-106.6679692 44.8828125-106.6679692 117.3320315 0 5.761719 4.5664062 10.476562 10.3046872 10.667969 3.007813.105468 5.929688.148437 8.832032.148437 62.933593 0 98.453124-23.679687 108.4375-72.234375 1.109374-5.484375-2.15625-10.878906-7.53125-12.414062zm0 0" fill="#607d8b" data-original="#607D8B" class="active-path" data-old_color="#607d8b" style="fill:#4A5568"/><path d="m226.933594 145.066406c5.078125-8.296875 7.808594-17.835937 7.808594-27.710937 0-15.234375-6.679688-29.824219-18.347657-40.023438-4.011719-3.519531-10.046875-3.519531-14.039062 0-4.199219 3.648438-11.21875 8.023438-20.949219 8.023438-9.726562 0-16.746094-4.375-20.925781-8.023438-4.011719-3.519531-10.046875-3.496093-14.039063 0-11.6875 10.199219-18.367187 24.789063-18.367187 40.023438 0 9.898437 2.730469 19.433593 7.808593 27.710937-19.585937 18.558594-29.140624 51.542969-29.140624 100.289063 0 84.246093 29.3125 138.664062 74.664062 138.664062 45.355469 0 74.667969-54.417969 74.667969-138.664062 0-48.746094-9.558594-81.730469-29.140625-100.289063zm0 0" fill="#455a64" data-original="#455A64" class="" data-old_color="#455a64" style="fill:#C0C9D3"/><path d="m181.40625 384.019531c-45.351562 0-74.664062-54.417969-74.664062-138.664062 0-48.746094 9.554687-81.730469 29.140624-100.289063-5.078124-8.296875-7.808593-17.835937-7.808593-27.710937 0-15.234375 6.679687-29.824219 18.347656-40.023438 4.011719-3.496093 10.046875-3.519531 14.035156 0 4.203125 3.648438 11.222657 8.023438 20.949219 8.023438 9.730469 0 16.75-4.375 20.929688-8.023438 4.011718-3.519531 10.046874-3.519531 14.039062 0 11.667969 10.21875 18.34375 24.8125 18.34375 40.023438 0 9.898437-2.730469 19.433593-7.808594 27.710937 19.585938 18.558594 29.144532 51.542969 29.144532 100.289063.019531 84.222656-29.292969 138.664062-74.648438 138.664062zm-26.429688-284.5c-3.628906 5.226563-5.570312 11.351563-5.570312 17.835938 0 8.277343 3.203125 16.148437 9.003906 22.164062 2.21875 2.304688 3.285156 5.460938 2.945313 8.640625-.386719 3.179688-2.15625 6.015625-4.84375 7.742188-18.878907 12.097656-28.4375 42.199218-28.4375 89.453125 0 69.078125 21.929687 117.332031 53.332031 117.332031 31.40625 0 53.335938-48.253906 53.335938-117.332031 0-47.253907-9.558594-77.335938-28.4375-89.453125-2.6875-1.726563-4.460938-4.5625-4.84375-7.742188-.363282-3.179687.703124-6.335937 2.945312-8.640625 5.800781-6.035156 9-13.910156 9-22.164062 0-6.464844-1.941406-12.585938-5.566406-17.835938-16.128906 9.324219-36.734375 9.324219-52.863282 0zm0 0" data-original="#000000" class="" data-old_color="#000000" style="fill:#2D3748"/><path d="m245.40625 234.6875c-5.886719 0-10.664062-4.777344-10.664062-10.667969 0-5.886719 4.777343-10.664062 10.664062-10.664062 31.554688 0 88.75-29.207031 95.382812-85.183594-61.398437-.640625-96.0625-24.46875-105.835937-72.707031-1.109375-5.503906 2.21875-10.941406 7.660156-12.414063 5.523438-1.535156 11.09375 1.515625 12.886719 6.828125.46875 1.386719 1.597656 3.433594 5.757812 5.203125 6.65625 2.796875 15.871094 2.839844 22.679688 2.113281-5.78125-7.660156-17.109375-20.671874-35.394531-38.957031-3.050781-3.050781-3.96875-7.636719-2.304688-11.625 1.664063-3.988281 5.546875-6.5937498 9.859375-6.5937498 88.808594 0 106.664063 44.8867188 106.664063 117.3124998v.085938c-.0625 72.640625-68.371094 117.269531-117.355469 117.269531zm21.464844-156.394531c13.460937 19.199219 37.523437 28.289062 74.410156 28.542969-1.195312-50.429688-12.140625-77.097657-58.390625-83.796876 33.644531 36.289063 28.949219 41.898438 24.042969 47.808594-6.058594 7.253906-26.367188 9.171875-40.0625 7.445313zm0 0" data-original="#000000" class="" data-old_color="#000000" style="fill:#2D3748"/><path d="m117.40625 234.6875c-48.980469 0-117.289062-44.628906-117.3320312-117.289062 0-.023438 0-.042969 0-.085938 0-72.425781 17.8554692-117.3125 106.6679692-117.3125 4.308593 0 8.210937 2.601562 9.855468 6.59375 1.640625 3.988281.726563 8.574219-2.304687 11.625-18.304688 18.304688-29.609375 31.296875-35.414063 38.953125 6.804688.75 16.023438.707031 22.679688-2.109375 4.136718-1.773438 5.269531-3.820312 5.757812-5.207031 1.8125-5.3125 7.402344-8.382813 12.886719-6.824219 5.441406 1.492188 8.765625 6.929688 7.660156 12.433594-9.773437 48.214844-44.4375 72.066406-105.835937 72.707031 6.632812 55.957031 63.828125 85.183594 95.378906 85.183594 5.890625 0 10.667969 4.777343 10.667969 10.664062 0 5.890625-4.777344 10.667969-10.667969 10.667969zm-37.480469-211.648438c-46.25 6.699219-57.195312 33.367188-58.390625 83.796876 36.886719-.253907 60.949219-9.34375 74.410156-28.542969-13.695312 1.707031-34.003906-.191407-40.0625-7.445313-4.90625-5.910156-9.601562-11.519531 24.042969-47.808594zm0 0" data-original="#000000" class="" data-old_color="#000000" style="fill:#2D3748"/><path d="m309.40625 298.6875c-3.902344 0-7.65625-2.152344-9.535156-5.886719-3.09375-6.167969-26.367188-15.445312-54.464844-15.445312-5.886719 0-10.664062-4.78125-10.664062-10.667969s4.777343-10.667969 10.664062-10.667969c24.085938 0 63.554688 7.253907 73.539062 27.222657 2.621094 5.269531.488282 11.667968-4.78125 14.316406-1.511718.746094-3.15625 1.128906-4.757812 1.128906zm0 0" data-original="#000000" class="" data-old_color="#000000" style="fill:#2D3748"/><path d="m298.742188 341.355469c-3.90625 0-7.660157-2.15625-9.535157-5.890625-3.863281-7.679688-18.882812-15.445313-43.800781-15.445313-5.886719 0-10.664062-4.777343-10.664062-10.664062 0-5.890625 4.777343-10.667969 10.664062-10.667969 30.828125 0 54.335938 10.175781 62.871094 27.222656 2.625 5.269532.492187 11.667969-4.777344 14.3125-1.515625.746094-3.160156 1.132813-4.757812 1.132813zm0 0" data-original="#000000" class="" data-old_color="#000000" style="fill:#2D3748"/><path d="m288.074219 384.019531c-3.902344 0-7.660157-2.152343-9.535157-5.886719-3.09375-6.164062-26.367187-15.445312-54.464843-15.445312-5.886719 0-10.667969-4.777344-10.667969-10.667969 0-5.886719 4.78125-10.664062 10.667969-10.664062 24.085937 0 63.550781 7.253906 73.535156 27.21875 2.625 5.269531.492187 11.671875-4.777344 14.316406-1.515625.746094-3.15625 1.128906-4.757812 1.128906zm0 0" data-original="#000000" class="" data-old_color="#000000" style="fill:#2D3748"/><path d="m53.40625 298.6875c-1.597656 0-3.242188-.363281-4.777344-1.128906-5.269531-2.648438-7.382812-9.046875-4.757812-14.335938 9.984375-19.96875 49.453125-27.203125 73.535156-27.203125 5.890625 0 10.667969 4.78125 10.667969 10.667969s-4.777344 10.667969-10.667969 10.667969c-28.074219 0-51.367188 9.300781-54.460938 15.445312-1.878906 3.734375-5.632812 5.886719-9.539062 5.886719zm0 0" data-original="#000000" class="" data-old_color="#000000" style="fill:#2D3748"/><path d="m64.074219 341.355469c-1.597657 0-3.242188-.363281-4.777344-1.132813-5.269531-2.644531-7.382813-9.042968-4.757813-14.335937 8.53125-17.042969 32.042969-27.21875 62.867188-27.21875 5.890625 0 10.667969 4.777343 10.667969 10.664062 0 5.890625-4.777344 10.667969-10.667969 10.667969-24.914062 0-39.933594 7.765625-43.796875 15.445312-1.875 3.753907-5.628906 5.910157-9.535156 5.910157zm0 0" data-original="#000000" class="" data-old_color="#000000" style="fill:#2D3748"/><path d="m74.742188 384.019531c-1.601563 0-3.242188-.359375-4.78125-1.128906-5.269532-2.644531-7.378907-9.046875-4.753907-14.335937 10.003907-19.96875 49.449219-27.222657 73.535157-27.222657 5.886718 0 10.664062 4.78125 10.664062 10.667969s-4.777344 10.667969-10.664062 10.667969c-28.074219 0-51.371094 9.300781-54.464844 15.445312-1.878906 3.753907-5.632813 5.90625-9.535156 5.90625zm0 0" data-original="#000000" class="" data-old_color="#000000" style="fill:#2D3748"/><path d="m163.808594 512.148438c-1.453125 0-2.964844-.042969-4.5-.167969-30.210938-2.21875-43.414063-17.453125-49.070313-23.980469-3.859375-4.4375-3.839843-11.648438.578125-15.53125 4.4375-3.882812 10.667969-3.945312 14.589844.449219 5.824219 6.742187 14.019531 16.191406 35.4375 17.769531 16.980469 1.195312 24.0625-6.910156 31.59375-34.816406 8.085938-29.886719 2.003906-54.421875-18.582031-75.007813-4.160157-4.160156-4.160157-10.921875 0-15.082031 4.160156-4.160156 10.921875-4.160156 15.082031 0 26.09375 26.089844 34.199219 58.261719 24.085938 95.660156-4.820313 17.941406-13.675782 50.707032-49.214844 50.707032zm0 0" data-original="#000000" class="" data-old_color="#000000" style="fill:#2D3748"/><path d="m106.742188 490.6875c-17.644532 0-32-14.355469-32-32 0-7.742188 4.246093-21.910156 9.085937-37.121094.085937-3.175781.898437-6.570312 2.648437-10.195312 2.453126-5.054688 9.511719-9.109375 14.570313-7.019532 8.234375 3.285157 7.335937 9.878907 4.820313 18.324219 1.003906 3.308594 6.078124 7.277344 14.25 12.886719 9.558593 6.570312 18.625 12.800781 18.625 23.125 0 17.644531-14.359376 32-32 32zm-8.109376-44.371094c-1.449218 5.332032-2.558593 10.066406-2.558593 12.371094 0 5.886719 4.800781 10.667969 10.667969 10.667969 5.375 0 9.855468-4.011719 10.558593-9.195313-1.769531-1.855468-6.207031-4.886718-9.300781-6.996094-2.816406-1.964843-6.144531-4.226562-9.367188-6.847656zm0 0" data-original="#000000" class="" data-old_color="#000000" style="fill:#2D3748"/></g> </svg>
