<?xml version="1.0"?>
<svg xmlns="http://www.w3.org/2000/svg" height="512px" viewBox="0 -16 512 512" width="512px" class=""><g><path d="m314.476562 149.980469c-.109374-.234375-.535156-1.195313-.621093-1.449219-2.132813-5.3125.148437-11.734375 5.355469-14.082031 5.226562-2.34375 11.179687-.53125 13.757812 4.585937l-8.914062 6.273438zm0 0" data-original="#000000" class="" data-old_color="#000000" style="fill:#2D3748"/><path d="m480.960938 25.671875c-5.292969-6.65625-9.835938-12.375-12.351563-18.835937-2.113281-5.421876-8.171875-8.152344-13.65625-6.125-5.460937 2.027343-8.277344 8.066406-6.335937 13.570312 23.574218 66.664062-.597657 101.03125-5.90625 104.511719-12.652344 7.230469-53.164063 12.136719-79.980469 15.402343-11.5 1.386719-21.910157 2.664063-29.652344 3.945313-1.324219-.789063-2.710937-1.558594-4.246094-2.324219-4.074219-2.046875-8.980469-1.28125-12.222656 1.898438-3.265625 3.179687-4.140625 8.0625-2.21875 12.179687 5.84375 12.4375 10.023437 22.722657 13.546875 31.382813 10.023438 24.640625 16.0625 39.507812 40.445312 52.246094 1.515626.789062 3.222657 1.214843 4.929688 1.214843 89.40625 0 138.667969-41.664062 138.667969-117.332031.019531-52.628906-17.195313-74.328125-31.019531-91.734375zm0 0" fill="#607d8b" data-original="#607D8B" class=""/><path d="m183.167969 135.773438c-1.515625.769531-2.921875 1.535156-4.246094 2.324218-7.742187-1.277344-18.175781-2.539062-29.652344-3.945312-26.816406-3.242188-67.328125-8.148438-79.851562-15.316406-5.4375-3.542969-29.609375-37.910157-6.035157-104.578126 1.941407-5.503906-.875-11.539062-6.335937-13.566406-5.460937-2.050781-11.542969.703125-13.65625 6.121094-2.515625 6.484375-7.058594 12.203125-12.351563 18.859375-13.824218 17.40625-31.039062 39.105469-31.039062 91.691406 0 75.667969 49.257812 117.332031 138.667969 117.332031 1.746093 0 3.453125-.425781 4.992187-1.238281 24.296875-12.882812 30.335938-27.667969 40.339844-52.203125 3.519531-8.660156 7.703125-18.941406 13.589844-31.378906 1.941406-4.117188 1.066406-9.003906-2.199219-12.183594-3.261719-3.199218-8.167969-3.964844-12.222656-1.917968zm0 0" fill="#607d8b" data-original="#607D8B" class=""/><path d="m187.945312 155.976562c-2.644531 0-5.289062-.980468-7.359374-2.945312-3.5625-3.390625-4.265626-8.660156-2.046876-12.800781.640626-1.277344 1.535157-2.601563 2.472657-3.496094 4.246093-4.035156 11.007812-3.90625 15.085937.382813 3.285156 3.457031 3.796875 8.554687 1.597656 12.523437-.53125 1.109375-1.28125 2.238281-2.027343 3.050781-2.089844 2.175782-4.90625 3.285156-7.722657 3.285156zm0 0" data-original="#000000" class="" data-old_color="#000000" style="fill:#2D3748"/><path d="m383.980469 223.28125c-.257813-3.691406-2.414063-6.996094-5.699219-8.703125-17.449219-9.109375-21.011719-17.898437-30.546875-41.363281-3.648437-8.960938-7.980469-19.585938-14.015625-32.449219-1.046875-2.21875-2.839844-4.011719-5.035156-5.078125-16.789063-8.0625-46.039063-10.582031-72.683594 1.726562-26.625-12.308593-55.851562-9.789062-72.660156-1.726562-2.21875 1.066406-3.992188 2.859375-5.035156 5.054688-6.082032 12.886718-10.410157 23.511718-14.082032 32.472656-9.535156 23.402344-13.097656 32.148437-30.546875 41.386718-3.265625 1.726563-5.398437 5.011719-5.65625 8.679688-2.28125 32.535156 10.753907 69.738281 23.363281 105.730469 8.53125 24.363281 16.617188 47.378906 19.371094 67.175781 1.683594 12.078125 6.570313 22.082031 14.484375 29.675781 2.859375 2.753907 7.058594 3.667969 10.816407 2.410157 3.773437-1.277344 6.527343-4.5625 7.101562-8.488282 2.390625-15.789062 12.246094-33.472656 31.875-35.777344 1.9375.105469 5.480469 1.066407 8.894531 1.878907 11.667969 2.8125 12.414063 2.8125 24.085938 0 3.414062-.832031 6.976562-1.773438 8.085937-1.921875 20.4375 2.324218 30.292969 20.03125 32.679688 35.820312.597656 3.945313 3.328125 7.210938 7.105468 8.488282 1.109376.386718 2.28125.554687 3.433594.554687 2.710938 0 5.375-1.023437 7.382813-2.984375 7.933593-7.597656 12.800781-17.601562 14.484375-29.699219 2.753906-19.796875 10.835937-42.792969 19.371094-67.15625 12.671874-35.96875 25.707031-73.171875 23.425781-105.707031zm0 0" fill="#ffc107" data-original="#FFC107" class="active-path" data-old_color="#ffc107" style="fill:#CBD5E0"/><path d="m278.507812 362.757812c-3.605468-.359374-7.9375.578126-15.359374 2.347657-3.011719.726562-5.890626 1.453125-6.808594 1.601562-1.578125-.148437-4.457032-.898437-7.488282-1.601562-7.445312-1.769531-11.753906-2.644531-15.378906-2.347657-34.21875 3.84375-52.140625 35.050782-52.140625 63.9375 0 29.910157 32.8125 53.332032 74.667969 53.332032s74.667969-23.421875 74.667969-53.332032c0-28.886718-17.921875-60.09375-52.160157-63.9375zm0 0" fill="#cfd8dc" data-original="#CFD8DC" class=""/><path d="m178.644531 236.105469c-3.070312 1.066406-5.480469 3.496093-6.546875 6.546875-3.714844 10.644531-.023437 23.574218 9.386719 33.003906 6.972656 6.976562 15.914063 10.816406 24.382813 10.816406 2.964843 0 5.867187-.46875 8.617187-1.429687 3.074219-1.066407 5.484375-3.5 6.550781-6.550781 3.710938-10.644532.019532-23.574219-9.386718-33-9.410157-9.429688-22.359376-13.078126-33.003907-9.386719zm0 0" fill="#455a64" data-original="#455A64" class="" data-old_color="#455a64" style="fill:#4A5568"/><path d="m339.925781 242.675781c-1.066406-3.074219-3.5-5.484375-6.550781-6.550781-10.621094-3.691406-23.574219-.019531-33 9.386719-9.429688 9.40625-13.101562 22.355469-9.386719 33.003906 1.066407 3.070313 3.496094 5.480469 6.546875 6.546875 2.753906.960938 5.652344 1.429688 8.621094 1.429688 8.46875 0 17.40625-3.839844 24.382812-10.816407 9.40625-9.429687 13.078126-22.378906 9.386719-33zm0 0" fill="#455a64" data-original="#455A64" class="" data-old_color="#455a64" style="fill:#4A5568"/><path d="m373.332031 234.695312c-5.886719 0-10.664062-4.777343-10.664062-10.667968 0-5.886719 4.777343-10.664063 10.664062-10.664063 53.527344 0 117.335938-16.664062 117.335938-96 0-25.496093-4.460938-42.21875-10.605469-54.761719 1.707031 42.324219-15.167969 68.03125-26.75 74.6875-15.273438 8.765626-47.550781 13.203126-88.191406 18.109376-13.183594 1.601562-24.898438 2.988281-32.429688 4.4375-3.113281.621093-6.269531-.191407-8.722656-2.175782-10.304688-8.296875-39.210938-11.902344-62.828125 1.046875-5.203125 2.792969-11.648437.917969-14.484375-4.226562-2.835938-5.160157-.9375-11.644531 4.222656-14.484375 28.972656-15.890625 63.617188-13.332032 82.285156-1.917969 7.699219-1.257813 18.023438-2.496094 29.417969-3.882813 26.835938-3.242187 67.414063-8.128906 80.128907-15.445312 5.375-3.5 29.546874-37.738281 5.929687-104.535156-1.941406-5.480469.875-11.519532 6.335937-13.546875 5.480469-2.027344 11.539063.707031 13.652344 6.125 2.519532 6.460937 7.082032 12.203125 12.351563 18.835937 13.804687 17.449219 31.019531 39.125 31.019531 91.734375 0 75.667969-49.257812 117.332031-138.667969 117.332031zm0 0" data-original="#000000" class="" data-old_color="#000000" style="fill:#2D3748"/><path d="m373.332031 234.695312c-1.683593 0-3.371093-.40625-4.949219-1.238281-24.363281-12.820312-30.441406-27.730469-40.511718-52.4375-2.046875-5.011719-4.308594-10.578125-6.976563-16.765625-2.324219-5.398437.152344-11.691406 5.570313-14.015625 5.398437-2.371093 11.667968.148438 14.015625 5.566407 2.730469 6.335937 5.054687 12.03125 7.144531 17.171874 9.601562 23.597657 13.207031 32.429688 30.679688 41.625 5.203124 2.730469 7.210937 9.191407 4.457031 14.398438-1.898438 3.625-5.609375 5.695312-9.429688 5.695312zm0 0" data-original="#000000" class="" data-old_color="#000000" style="fill:#2D3748"/><path d="m138.667969 234.695312c-89.410157 0-138.667969-41.664062-138.667969-117.332031 0-52.609375 17.214844-74.285156 31.0625-91.710937 5.269531-6.636719 9.8125-12.375 12.351562-18.839844 2.109376-5.417969 8.191407-8.171875 13.652344-6.121094 5.441406 2.027344 8.257813 8.0625 6.316406 13.566406-23.617187 66.796876.554688 101.035157 5.972657 104.554688 12.671875 7.273438 53.226562 12.160156 80.0625 15.402344 11.394531 1.367187 21.71875 2.625 29.417969 3.882812 18.667968-11.433594 53.335937-13.972656 82.285156 1.921875 5.160156 2.835938 7.058594 9.320313 4.222656 14.484375-2.835938 5.140625-9.300781 7.0625-14.484375 4.222656-23.617187-12.96875-52.523437-9.363281-62.828125-1.066406-2.453125 1.964844-5.652344 2.796875-8.722656 2.175782-7.554688-1.449219-19.246094-2.835938-32.429688-4.4375-40.640625-4.90625-72.917968-9.363282-88.191406-18.109376-11.582031-6.65625-28.457031-32.363281-26.75-74.6875-6.144531 12.542969-10.605469 29.265626-10.605469 54.761719 0 79.335938 63.808594 96 117.335938 96 5.886719 0 10.664062 4.777344 10.664062 10.664063 0 5.890625-4.777343 10.667968-10.664062 10.667968zm0 0" data-original="#000000" class="" data-old_color="#000000" style="fill:#2D3748"/><path d="m138.667969 234.695312c-3.839844 0-7.554688-2.070312-9.453125-5.695312-2.75-5.226562-.746094-11.667969 4.460937-14.398438 17.472657-9.195312 21.078125-18.027343 30.675781-41.625 2.089844-5.140624 4.417969-10.8125 7.148438-17.171874 2.367188-5.417969 8.636719-7.914063 14.058594-5.566407 5.417968 2.324219 7.890625 8.617188 5.566406 14.015625-2.667969 6.1875-4.925781 11.734375-6.976562 16.765625-10.070313 24.707031-16.148438 39.617188-40.511719 52.4375-1.578125.832031-3.285157 1.238281-4.96875 1.238281zm0 0" data-original="#000000" class="" data-old_color="#000000" style="fill:#2D3748"/><path d="m319.316406 428.765625c-1.171875 0-2.347656-.191406-3.476562-.578125-3.753906-1.300781-6.484375-4.585938-7.082032-8.53125-2.324218-15.746094-12.117187-33.386719-32.621093-35.667969-1.105469.148438-4.648438 1.085938-8.082031 1.898438-11.691407 2.773437-12.4375 2.773437-24.128907 0-3.433593-.8125-6.976562-1.75-8.917969-1.859375-19.667968 2.242187-29.460937 19.90625-31.785156 35.648437-.578125 3.949219-3.308594 7.234375-7.085937 8.535157-3.753907 1.320312-7.933594.40625-10.8125-2.347657-7.980469-7.550781-12.867188-17.535156-14.570313-29.652343-2.773437-19.839844-10.839844-42.859376-19.394531-67.242188-12.585937-35.96875-25.597656-73.152344-23.359375-105.644531.425781-5.886719 5.675781-10.109375 11.371094-9.917969 5.886718.402344 10.304687 5.503906 9.917968 11.371094-1.941406 28.117187 10.328126 63.1875 22.210938 97.128906 8.488281 24.257812 16.53125 47.230469 19.925781 68.351562 8.210938-13.757812 21.820313-25.214843 42.023438-27.476562 3.628906-.300781 7.9375.574219 15.382812 2.347656 3.007813.722656 5.886719 1.449219 7.488281 1.597656.917969-.148437 3.796876-.894531 6.804688-1.597656 7.425781-1.773437 11.753906-2.6875 15.359375-2.347656 20.203125 2.261719 33.8125 13.71875 42.050781 27.476562 3.390625-21.121093 11.433594-44.09375 19.921875-68.351562 11.882813-33.917969 24.152344-69.011719 22.210938-97.128906-.40625-5.867188 4.03125-10.96875 9.917969-11.371094 5.910156-.277344 10.964843 4.03125 11.371093 9.917969 2.21875 32.492187-10.773437 69.675781-23.359375 105.644531-8.535156 24.382812-16.597656 47.402344-19.390625 67.242188-1.707031 12.117187-6.59375 22.078124-14.574219 29.652343-1.980468 1.878907-4.628906 2.902344-7.316406 2.902344zm0 0" data-original="#000000" class="" data-old_color="#000000" style="fill:#2D3748"/><path d="m256 480.027344c-41.855469 0-74.667969-23.421875-74.667969-53.332032 0-28.886718 17.921875-60.09375 52.140625-63.9375 3.625-.296874 7.933594.578126 15.378906 2.347657 3.011719.726562 5.890626 1.453125 7.488282 1.601562.917968-.148437 3.796875-.898437 6.808594-1.601562 7.421874-1.769531 11.753906-2.6875 15.359374-2.347657 34.238282 3.84375 52.160157 35.074219 52.160157 63.9375 0 29.910157-32.8125 53.332032-74.667969 53.332032zm-20.96875-96.019532c-23.53125 2.6875-32.363281 27.007813-32.363281 42.6875 0 17.34375 24.425781 32 53.332031 32s53.332031-14.65625 53.332031-32c0-15.679687-8.832031-40-33.195312-42.730468-1.105469.148437-4.648438 1.089844-8.082031 1.898437-11.691407 2.773438-12.4375 2.773438-24.128907 0-3.414062-.808593-6.976562-1.75-8.894531-1.855469zm0 0" data-original="#000000" class="" data-old_color="#000000" style="fill:#2D3748"/><path d="m245.332031 426.695312c0 5.890626-4.773437 10.667969-10.664062 10.667969s-10.667969-4.777343-10.667969-10.667969c0-5.890624 4.777344-10.667968 10.667969-10.667968s10.664062 4.777344 10.664062 10.667968zm0 0" data-original="#000000" class="" data-old_color="#000000" style="fill:#2D3748"/><path d="m288 426.695312c0 5.890626-4.777344 10.667969-10.667969 10.667969s-10.664062-4.777343-10.664062-10.667969c0-5.890624 4.773437-10.667968 10.664062-10.667968s10.667969 4.777344 10.667969 10.667968zm0 0" data-original="#000000" class="" data-old_color="#000000" style="fill:#2D3748"/><path d="m205.84375 286.472656c-8.46875 0-17.40625-3.839844-24.382812-10.816406-9.40625-9.410156-13.097657-22.359375-9.386719-33.003906 1.066406-3.070313 3.5-5.480469 6.550781-6.546875 10.644531-3.691407 23.574219-.023438 33 9.386719 9.429688 9.40625 13.101562 22.355468 9.386719 33-1.066407 3.074218-3.496094 5.484374-6.546875 6.550781-2.753906.960937-5.652344 1.429687-8.621094 1.429687zm5.101562-11.5h.210938zm0 0" data-original="#000000" class="" data-old_color="#000000" style="fill:#2D3748"/><path d="m306.15625 286.472656c-2.96875 0-5.867188-.46875-8.621094-1.429687-3.070312-1.066407-5.480468-3.5-6.546875-6.550781-3.714843-10.644532-.023437-23.574219 9.386719-33 9.40625-9.429688 22.378906-13.078126 33-9.386719 3.074219 1.066406 5.484375 3.496093 6.550781 6.546875 3.710938 10.644531.019531 23.574218-9.386719 33.003906-6.976562 6.996094-15.914062 10.816406-24.382812 10.816406zm0 0" data-original="#000000" class="" data-old_color="#000000" style="fill:#2D3748"/></g> </svg>
