<?xml version="1.0"?>
<svg xmlns="http://www.w3.org/2000/svg" height="512px" viewBox="0 -79 501.95023 501" width="512px" class=""><g><path d="m466.785156 26.230469c-22.144531-26.070313-76.289062-40.511719-161.773437-2.859375-58.621094 25.855468-109.546875 100.691406-146.730469 155.328125-15.125 22.226562-29.417969 43.21875-36.605469 48.488281-15.167969 11.136719-34.839843 15.765625-46.679687 11.007812-6.144532-2.453124-9.8125-7.335937-11.179688-14.972656-.914062-5.121094-5.585937-7.960937-10.644531-8.769531-5.203125.0625-9.597656 3.902344-10.386719 9.046875-2.175781 14.035156.46875 28.796875 7.273438 41.855469-9.601563-5.546875-19.925782-13.761719-31.617188-26.21875-3.519531-3.753907-9.214844-4.4375-13.523437-1.6875-4.332031 2.773437-6.058594 8.234375-4.140625 12.972656 24.8125 61.269531 88.554687 92.925781 174.890625 92.925781 58.539062 0 127.46875-14.570312 201.644531-44.371094 3.113281-1.257812 5.929688-2.644531 8.746094-4.011718l4.246094-2.046875c5.269531-2.410157 7.082031-9.898438 4.796874-15.210938-.296874-.660156-.59375-1.324219-.832031-2.132812-13.757812-49.472657-59.5625-42.816407-76.753906-40.34375-1.046875.152343-2.007813.300781-2.753906.449219-2.390625-7.851563-4.011719-26.539063-4.84375-36.160157l-.636719-7.445312c-1.175781-12.394531-5.613281-19.136719-8.535156-23.59375-2.347656-3.5625-2.476563-3.90625-2.199219-5.910157.472656-3.390624 5.078125-10.15625 8.769531-15.574218 6.398438-9.386719 13.015625-19.113282 12.671875-28.992188-.320312-8.019531-.253906-26.195312 5.375-40.148437 16.320313 7.894531 33.515625 33.792969 37.503907 53.355469l.8125 3.476562c1.128906 4.929688 5.738281 8.339844 10.601562 8.296875 4.226562-.082031 7.914062-2.644531 9.558594-6.375.085937.980469.148437 2.023437.148437 3.15625 0 1.898437-.148437 4.414063-.277343 7.019531-.449219 8.082032-.617188 13.054688.46875 16.832032 4.929687 39.101562 48.429687 63.871093 69.503906 70.847656l6.445312-8.449219-4.566406 9.707031c4.609375 2.707032 10.582031 1.535156 13.824219-2.753906 57.8125-75.839844 26.835937-172.074219-2.601563-206.738281zm0 0" fill="#ffc107" data-original="#FFC107" class="" data-old_color="#ffc107" style="fill:#CFD8DC"/><path d="m175.667969 343.390625c-86.335938 0-150.078125-31.65625-174.890625-92.925781-1.917969-4.757813-.191406-10.21875 4.140625-12.972656 4.308593-2.773438 10.003906-2.089844 13.523437 1.6875 11.710938 12.4375 22.015625 20.648437 31.617188 26.21875-6.785156-13.078126-9.429688-27.839844-7.273438-41.859376.789063-5.140624 5.183594-8.957031 10.386719-9.042968 5.058594.808594 9.730469 3.648437 10.644531 8.765625 1.367188 7.640625 5.035156 12.523437 11.179688 14.976562 11.839844 4.757813 31.511718.128907 46.679687-11.007812 7.1875-5.269531 21.480469-26.261719 36.605469-48.488281 37.183594-54.65625 88.109375-129.472657 146.730469-155.328126 85.484375-37.65625 139.628906-23.210937 161.773437 2.859376 29.4375 34.664062 60.414063 130.898437 2.621094 206.761718-3.242188 4.289063-9.234375 5.460938-13.824219 2.75l4.589844-9.75-6.464844 8.492188c-21.078125-6.976563-64.554687-31.742188-69.503906-70.847656-1.109375-3.777344-.917969-8.746094-.46875-16.832032.125-2.601562.277344-5.097656.277344-7.019531 0-1.128906-.066407-2.175781-.152344-3.15625-1.640625 3.734375-5.332031 6.292969-9.554687 6.378906-4.886719.042969-9.472657-3.371093-10.605469-8.300781l-.808594-3.476562c-3.988281-19.5625-21.183594-45.460938-37.503906-53.355469-5.632813 13.953125-5.695313 32.128906-5.375 40.152343.359375 9.875-6.273438 19.605469-12.671875 28.992188-3.691406 5.417969-8.300782 12.179688-8.769532 15.570312-.300781 2.007813-.171874 2.328126 2.195313 5.910157 2.945313 4.460937 7.382813 11.199219 8.535156 23.59375l.640625 7.445312c.832032 9.621094 2.429688 28.3125 4.84375 36.160157.746094-.148438 1.703125-.296876 2.75-.445313 17.195313-2.496094 62.996094-9.152344 76.757813 40.339844.234375.832031.53125 1.472656.832031 2.132812 2.28125 5.3125.46875 12.800781-4.800781 15.210938l-4.246094 2.046875c-2.816406 1.386718-5.628906 2.773437-8.746094 4.011718-74.21875 29.78125-143.125 44.351563-201.664062 44.351563zm-114.238281-49.855469c68.671874 47.445313 194.6875 31.191406 307.925781-14.3125 1.152343-.449218 2.21875-.941406 3.261719-1.429687-8.789063-25.410157-29.589844-24.683594-52.03125-21.421875-6.613282.960937-10.945313 1.601562-14.996094.066406-11.371094-4.265625-13.890625-20.054688-16.898438-55.0625l-.636718-7.273438c-.664063-7.082031-2.734376-10.21875-5.121094-13.847656-2.921875-4.4375-6.933594-10.535156-5.484375-20.648437 1.195312-8.277344 6.804687-16.554688 12.265625-24.554688 3.160156-4.628906 9.046875-13.269531 8.960937-16.191406-.53125-14.25.363281-40.960937 12.375-59.519531 2.261719-3.5 6.335938-5.378906 10.453125-4.757813 24.128906 3.453125 45.757813 29.949219 56.40625 54.398438 1.917969-.765625 3.964844-1.171875 6.101563-1.171875 12.351562 0 21.332031 13.460937 21.332031 32 0 2.21875-.148438 5.140625-.320312 8.148437-.191407 3.605469-.492188 7.402344-.296876 9.664063.296876.789062.445313 1.621094.53125 2.453125 2.753907 27.113281 35.542969 46.207031 52.074219 53.140625 43.074219-64.382813 17.089844-145-6.804687-173.160156-13.183594-15.53125-56.851563-32.449219-136.894532 2.855468-53.035156 23.382813-104 98.261719-137.730468 147.820313-18.261719 26.859375-31.488282 46.25-41.597656 53.695312-16.664063 12.203125-42.070313 21.097657-63.0625 15.039063.640624 1.046875 1.34375 2.050781 2.089843 3.050781 6.65625 8.984375 15.488281 14.847656 24.171875 16.085937 5.78125.832032 9.835938 6.167969 9.085938 11.949219-.765625 5.800781-6.441406 9.855469-11.839844 9.214844-10.855469-1.34375-21.78125-2.625-33.320312-6.230469zm0 0" data-original="#000000" class="active-path" data-old_color="#000000" style="fill:#4A5568"/><path d="m95.988281 299.785156c-5.886719 0-10.667969-4.777344-10.667969-10.664062 0-5.890625 4.78125-10.667969 10.667969-10.667969 59.457031 0 100.757813-13.269531 119.445313-38.378906 3.5625-4.734375 10.242187-5.652344 14.933594-2.175781 4.734374 3.519531 5.71875 10.195312 2.199218 14.933593-23.210937 31.167969-69.164062 46.953125-136.578125 46.953125zm0 0" data-original="#000000" class="active-path" data-old_color="#000000" style="fill:#4A5568"/></g> </svg>
